<?xml version="1.0" encoding="UTF-8"?>
<svg width="30px" height="30px" viewBox="0 0 30 30" version="1.1" xmlns="http://www.w3.org/2000/svg" xmlns:xlink="http://www.w3.org/1999/xlink">
    <!-- Generator: Sketch 50.2 (55047) - http://www.bohemiancoding.com/sketch -->
    <title>ico-jointapplicant</title>
    <desc>Created with Sketch.</desc>
    <defs></defs>
    <g id="Agent-Sales-Channel" stroke="none" stroke-width="1" fill="none" fill-rule="evenodd">
        <g id="4.1.1.1-FNA---Client" transform="translate(-300.000000, -165.000000)" fill="#000000" fill-rule="nonzero">
            <g id="steps" transform="translate(40.000000, 140.000000)">
                <g id="s2" transform="translate(200.000000, 0.000000)">
                    <g id="ico-jointapplicant" transform="translate(60.000000, 25.000000)">
                        <path d="M15.0129199,0 C6.74418605,0 0,6.72413793 0,15 C0,23.2758621 6.71834625,30 15.0129199,30 C23.2816537,30 30,23.2758621 30,15 C30,6.72413793 23.2816537,0 15.0129199,0 Z M15.0129199,27.9051724 C7.90697674,27.9051724 2.11886305,22.112069 2.11886305,15 C2.11886305,7.88793103 7.90697674,2.09482759 15.0129199,2.09482759 C22.118863,2.09482759 27.9069767,7.88793103 27.9069767,15 C27.9069767,22.112069 22.118863,27.9051724 15.0129199,27.9051724 Z" id="Shape"></path>
                        <path d="M22.2744982,14.1192444 L16.2709563,14.1192444 L16.2709563,8.08913813 C16.2709563,7.47815821 15.7927981,7 15.1818182,7 C14.5708383,7 14.09268,7.47815821 14.09268,8.08913813 L14.09268,14.09268 L8.08913813,14.09268 C7.47815821,14.09268 7,14.5708383 7,15.1818182 C7,15.7927981 7.47815821,16.2709563 8.08913813,16.2709563 L14.09268,16.2709563 L14.09268,22.2744982 C14.09268,22.8854782 14.5708383,23.3636364 15.1818182,23.3636364 C15.7927981,23.3636364 16.2709563,22.8854782 16.2709563,22.2744982 L16.2709563,16.2709563 L22.2744982,16.2709563 C22.8854782,16.2709563 23.3636364,15.7927981 23.3636364,15.1818182 C23.3636364,14.5708383 22.8854782,14.1192444 22.2744982,14.1192444 Z" id="Shape"></path>
                    </g>
                </g>
            </g>
        </g>
    </g>
</svg>