<?xml version="1.0" encoding="UTF-8"?>
<svg width="33px" height="25px" viewBox="0 0 33 25" version="1.1" xmlns="http://www.w3.org/2000/svg" xmlns:xlink="http://www.w3.org/1999/xlink">
    <!-- Generator: Sketch 50.2 (55047) - http://www.bohemiancoding.com/sketch -->
    <title>ico-mail</title>
    <desc>Created with Sketch.</desc>
    <defs></defs>
    <g id="Agent-Sales-Channel" stroke="none" stroke-width="1" fill="none" fill-rule="evenodd">
        <g id="5.1-Clients" transform="translate(-1134.000000, -186.000000)" fill="#000000" fill-rule="nonzero">
            <g id="content" transform="translate(40.000000, 170.000000)">
                <g id="Group">
                    <g id="ico-mail" transform="translate(1094.000000, 16.000000)">
                        <path d="M28.7466125,0.0508130081 L4.00406504,0.0508130081 C1.79539295,0.0508130081 0,1.84620596 0,4.05487805 L0,20.9654472 C0,23.1741192 1.79539295,24.9695122 4.00406504,24.9695122 L28.7398374,24.9695122 C30.9485095,24.9695122 32.7439024,23.1741192 32.7439024,20.9654472 L32.7439024,4.06165312 C32.7506775,1.85298103 30.9552846,0.0508130081 28.7466125,0.0508130081 Z M30.9214092,20.9654472 C30.9214092,22.1646341 29.9457995,23.1402439 28.7466125,23.1402439 L4.00406504,23.1402439 C2.80487805,23.1402439 1.82926829,22.1646341 1.82926829,20.9654472 L1.82926829,4.06165312 C1.82926829,2.86246612 2.80487805,1.88685637 4.00406504,1.88685637 L28.7398374,1.88685637 C29.9390244,1.88685637 30.9146341,2.86246612 30.9146341,4.06165312 L30.9146341,20.9654472 L30.9214092,20.9654472 Z" id="Shape"></path>
                        <path d="M20.6504065,12.3001355 L28.6585366,5.11856369 C29.0311653,4.7798103 29.0650407,4.20392954 28.7262873,3.82452575 C28.3875339,3.45189702 27.8116531,3.41802168 27.4322493,3.75677507 L16.3888889,13.6686992 L14.2344173,11.7445799 C14.2276423,11.7378049 14.2208672,11.7310298 14.2208672,11.7242547 C14.1734417,11.6768293 14.1260163,11.6361789 14.0718157,11.5955285 L5.30487805,3.75 C4.92547425,3.41124661 4.3495935,3.44512195 4.01084011,3.82452575 C3.67208672,4.20392954 3.70596206,4.7798103 4.08536585,5.11856369 L12.1883469,12.3611111 L4.11924119,19.9153117 C3.75338753,20.2608401 3.73306233,20.8367209 4.07859079,21.2093496 C4.26151762,21.3990515 4.50542005,21.5006775 4.74932249,21.5006775 C4.97289973,21.5006775 5.19647696,21.4193767 5.37262873,21.2567751 L13.5636856,13.5941734 L15.7859079,15.5792683 C15.9620596,15.7350949 16.1788618,15.8096206 16.395664,15.8096206 C16.6124661,15.8096206 16.8360434,15.7283198 17.0054201,15.5724932 L19.2886179,13.5264228 L27.4322493,21.2635501 C27.6084011,21.4329268 27.8387534,21.5142276 28.0623306,21.5142276 C28.3062331,21.5142276 28.5433604,21.4193767 28.7262873,21.2296748 C29.0718157,20.8638211 29.0582656,20.2811653 28.6924119,19.9356369 L20.6504065,12.3001355 Z" id="Shape"></path>
                    </g>
                </g>
            </g>
        </g>
    </g>
</svg>