<?xml version="1.0" encoding="UTF-8"?>
<svg width="70px" height="70px" viewBox="0 0 70 70" version="1.1" xmlns="http://www.w3.org/2000/svg" xmlns:xlink="http://www.w3.org/1999/xlink">
    <!-- Generator: Sketch 50.2 (55047) - http://www.bohemiancoding.com/sketch -->
    <title>ico-systemadmin</title>
    <desc>Created with Sketch.</desc>
    <defs></defs>
    <g id="Agent-Sales-Channel" stroke="none" stroke-width="1" fill="none" fill-rule="evenodd">
        <g id="1.2-Home" transform="translate(-895.000000, -465.000000)" fill="#000000" fill-rule="nonzero">
            <g id="content" transform="translate(40.000000, 160.000000)">
                <g id="Button" transform="translate(780.000000, 260.000000)">
                    <g id="ico-systemadmin" transform="translate(75.000000, 45.000000)">
                        <path d="M66.3757829,27.6348017 L61.4655532,26.8018163 C60.954071,25.1504593 60.2964509,23.5575574 59.4926931,22.0377244 L62.3862213,17.9897077 C63.6137787,16.2652818 63.4237996,13.9124635 61.9185804,12.421858 L57.5636743,8.06695198 C56.7453027,7.24858038 55.6638831,6.79555324 54.5093946,6.79555324 C53.6033403,6.79555324 52.7411273,7.07321503 52.0104384,7.59931106 L47.9478079,10.4928392 C46.3695198,9.65985386 44.7181628,8.97300626 43.0083507,8.46152401 L42.1899791,3.60974948 C41.8392484,1.51997912 40.0417537,0.000146137787 37.9227557,0.000146137787 L31.7703549,0.000146137787 C29.651357,0.000146137787 27.8538622,1.51997912 27.5031315,3.60974948 L26.6555324,8.57843424 C25.0187891,9.08991649 23.4258873,9.76215031 21.9060543,10.5805219 L17.8872651,7.68699374 C17.1565762,7.1608977 16.2797495,6.88323591 15.3736952,6.88323591 C14.2192067,6.88323591 13.1231733,7.33626305 12.3194154,8.15463466 L7.94989562,12.5095407 C6.45929019,14.0001461 6.25469729,16.3529645 7.4822547,18.0773904 L10.4050104,22.1838622 C9.60125261,23.718309 8.95824635,25.3112109 8.46137787,26.9625678 L3.60960334,27.7809395 C1.51983299,28.1316701 -2.84217094e-14,29.9291649 -2.84217094e-14,32.0481628 L-2.84217094e-14,38.2005637 C-2.84217094e-14,40.3195616 1.51983299,42.1170564 3.60960334,42.4677871 L8.5782881,43.3153862 C9.08977035,44.9521294 9.76200418,46.5450313 10.5803758,48.0648643 L7.70146138,52.0690397 C6.47390397,53.7934656 6.66388309,56.1462839 8.1691023,57.6368894 L12.5240084,61.9917954 C13.34238,62.810167 14.4237996,63.2631942 15.5782881,63.2631942 C16.4843424,63.2631942 17.3465553,62.9855324 18.0772443,62.4594363 L22.1837161,59.5366806 C23.6597077,60.3112109 25.2087683,60.9396033 26.8016701,61.4364718 L27.6200418,66.3467015 C27.9707724,68.4364718 29.7682672,69.9563048 31.8872651,69.9563048 L38.0542797,69.9563048 C40.1732777,69.9563048 41.9707724,68.4364718 42.3215031,66.3467015 L43.1544885,61.4364718 C44.8058455,60.9249896 46.3987474,60.2673695 47.9185804,59.4636117 L51.9665971,62.3571399 C52.697286,62.8832359 53.5741127,63.1608977 54.480167,63.1608977 C55.6346555,63.1608977 56.7160752,62.7078706 57.5344468,61.889499 L61.8893528,57.5345929 C63.3799582,56.0439875 63.5845511,53.6911691 62.3569937,51.9667432 L59.4634656,47.9041127 C60.2672234,46.369666 60.9394572,44.7767641 61.4363257,43.1400209 L66.3465553,42.3216493 C68.4363257,41.9709186 69.9561587,40.1734238 69.9561587,38.0544259 L69.9561587,31.9020251 C69.9853862,29.7830271 68.4655532,27.9855324 66.3757829,27.6348017 Z M66.039666,38.0544259 C66.039666,38.244405 65.908142,38.4051566 65.7181628,38.4343841 L59.5803758,39.4573486 C58.8058455,39.5888727 58.1920668,40.15881 58.0020877,40.9041127 C57.4467641,43.0523382 56.5991649,45.112881 55.4592902,47.027286 C55.0647182,47.6995198 55.0939457,48.5325052 55.5469729,49.1755115 L59.1565762,54.2611065 C59.2588727,54.4072443 59.2442589,54.6264509 59.1127349,54.7579749 L54.7578288,59.112881 C54.6555324,59.2151775 54.5532359,59.2297912 54.480167,59.2297912 C54.3924843,59.2297912 54.3194154,59.2005637 54.2609603,59.1567223 L49.1899791,55.547119 C48.5615866,55.0940919 47.7139875,55.0648643 47.0417537,55.4594363 C45.1273486,56.5993111 43.0668058,57.4469102 40.9185804,58.0022338 C40.1586639,58.1922129 39.5887265,58.8206054 39.4718163,59.5805219 L38.434238,65.718309 C38.4050104,65.9082881 38.2442589,66.0398121 38.0542797,66.0398121 L31.9018789,66.0398121 C31.7118998,66.0398121 31.5511482,65.9082881 31.5219207,65.718309 L30.4989562,59.5805219 C30.3674322,58.8059916 29.7974948,58.1922129 29.0521921,58.0022338 C26.9624217,57.461524 24.9457203,56.6285386 23.0605428,55.547119 C22.7536534,55.3717537 22.4029228,55.284071 22.0668058,55.284071 C21.6722338,55.284071 21.263048,55.4009812 20.9269311,55.6494154 L15.8121086,59.2882463 C15.7390397,59.3320877 15.6659708,59.3613152 15.5929019,59.3613152 C15.5344468,59.3613152 15.4175365,59.3467015 15.3152401,59.244405 L10.960334,54.889499 C10.82881,54.7579749 10.8141962,54.553382 10.9164927,54.3926305 L14.5114823,49.3508768 C14.9645094,48.7078706 14.993737,47.8602714 14.5991649,47.1880376 C13.4592902,45.2882463 12.5824635,43.2277035 12.0271399,41.0794781 C11.822547,40.3341754 11.2087683,39.764238 10.4488518,39.632714 L4.26722338,38.5805219 C4.07724426,38.5512944 3.94572025,38.3905428 3.94572025,38.2005637 L3.94572025,32.0481628 C3.94572025,31.8581837 4.07724426,31.6974322 4.26722338,31.6682046 L10.3611691,30.6452401 C11.1356994,30.5137161 11.7640919,29.9437787 11.954071,29.1838622 C12.4947808,27.0356367 13.3277662,24.9604802 14.4530271,23.0460752 C14.8475992,22.3738413 14.8037578,21.5408559 14.3507307,20.9124635 L10.7118998,15.7976409 C10.6096033,15.6515031 10.6242171,15.4322965 10.7557411,15.3007724 L15.1106472,10.9458664 C15.2129436,10.8435699 15.3152401,10.8289562 15.388309,10.8289562 C15.4759916,10.8289562 15.5490605,10.8581837 15.6075157,10.9020251 L20.6492693,14.4970146 C21.2922756,14.9500418 22.1398747,14.9792693 22.8121086,14.5846973 C24.7118998,13.4448225 26.7724426,12.5679958 28.9206681,12.0126722 C29.6659708,11.8080793 30.2359081,11.1943006 30.3674322,10.4343841 L31.4196242,4.25275574 C31.4488518,4.06277662 31.6096033,3.93125261 31.7995825,3.93125261 L37.9519833,3.93125261 C38.1419624,3.93125261 38.302714,4.06277662 38.3319415,4.25275574 L39.3549061,10.3467015 C39.4864301,11.1212317 40.0563674,11.7496242 40.8162839,11.9396033 C43.0229645,12.4949269 45.1273486,13.3571399 47.085595,14.5116284 C47.7578288,14.9062004 48.5908142,14.8769729 49.2338205,14.4239457 L54.2755741,10.7997286 C54.348643,10.7558873 54.4217119,10.7266597 54.4947808,10.7266597 C54.5532359,10.7266597 54.6701461,10.7412735 54.7724426,10.8435699 L59.1273486,15.198476 C59.2588727,15.33 59.2734864,15.5345929 59.17119,15.6953445 L55.5615866,20.7663257 C55.1085595,21.3947182 55.0793319,22.2423173 55.473904,22.9145511 C56.6137787,24.8289562 57.4613779,26.889499 58.0167015,29.0377244 C58.2066806,29.7976409 58.8350731,30.3675783 59.5949896,30.4844885 L65.7327766,31.5220668 C65.9227557,31.5512944 66.0542797,31.7120459 66.0542797,31.9020251 L66.0542797,38.0544259 L66.039666,38.0544259 Z" id="Shape"></path>
                        <path d="M34.9853862,19.8748852 C26.6555324,19.8748852 19.8893528,26.6410647 19.8893528,34.9709186 C19.8893528,43.3007724 26.6555324,50.066952 34.9853862,50.066952 C43.3152401,50.066952 50.0814196,43.3007724 50.0814196,34.9709186 C50.0814196,26.6410647 43.3152401,19.8748852 34.9853862,19.8748852 Z M34.9853862,46.1212317 C28.8329854,46.1212317 23.8350731,41.1233194 23.8350731,34.9709186 C23.8350731,28.8185177 28.8329854,23.8206054 34.9853862,23.8206054 C41.1377871,23.8206054 46.1356994,28.8185177 46.1356994,34.9709186 C46.1356994,41.1233194 41.1377871,46.1212317 34.9853862,46.1212317 Z" id="Shape"></path>
                    </g>
                </g>
            </g>
        </g>
    </g>
</svg>