<?xml version="1.0" encoding="UTF-8"?>
<svg width="50px" height="50px" viewBox="0 0 50 50" version="1.1" xmlns="http://www.w3.org/2000/svg" xmlns:xlink="http://www.w3.org/1999/xlink">
    <!-- Generator: Sketch 50.2 (55047) - http://www.bohemiancoding.com/sketch -->
    <title>loading</title>
    <desc>Created with Sketch.</desc>
    <defs></defs>
    <g id="loading" stroke="none" stroke-width="1" fill="none" fill-rule="evenodd">
        <path d="M24.9026201,34.9 C23.9982533,34.9 23.2650655,35.6331878 23.2650655,36.5375546 L23.2650655,48.1613537 C23.2650655,49.0657205 23.9982533,49.7989083 24.9026201,49.7989083 C25.8072052,49.7989083 26.5401747,49.0657205 26.5401747,48.1613537 L26.5401747,36.5375546 C26.5401747,35.6331878 25.8072052,34.9 24.9026201,34.9 Z" id="Shape" fill="#000000" fill-rule="nonzero"></path>
        <path d="M24.9026201,0 C23.9982533,0 23.2650655,0.733187773 23.2650655,1.63755459 L23.2650655,13.2585153 C23.2650655,14.1628821 23.9982533,14.8960699 24.9026201,14.8960699 C25.8072052,14.8960699 26.5401747,14.1628821 26.5401747,13.2585153 L26.5401747,1.63755459 C26.5401747,0.733187773 25.8072052,0 24.9026201,0 Z" id="Shape" fill="#000000" fill-rule="nonzero"></path>
        <path d="M14.9098253,24.9026201 C14.9098253,23.9982533 14.1768559,23.2650655 13.2722707,23.2650655 L1.63755459,23.2650655 C0.732969432,23.2650655 0,23.9982533 0,24.9026201 C0,25.8069869 0.732969432,26.5401747 1.63755459,26.5401747 L13.2722707,26.5401747 C14.1768559,26.5401747 14.9098253,25.8069869 14.9098253,24.9026201 Z" id="Shape" fill="#000000" fill-rule="nonzero"></path>
        <path d="M48.1615721,23.2650655 L36.5327511,23.2650655 C35.6281659,23.2650655 34.8951965,23.9982533 34.8951965,24.9026201 C34.8951965,25.8069869 35.6281659,26.5401747 36.5327511,26.5401747 L48.1615721,26.5401747 C49.0659389,26.5401747 49.7991266,25.8069869 49.7991266,24.9026201 C49.7991266,23.9982533 49.0659389,23.2650655 48.1615721,23.2650655 Z" id="Shape" fill="#000000" fill-rule="nonzero"></path>
        <path d="M15.5172489,31.9657205 L7.29497817,40.190393 C6.65545852,40.830131 6.65567686,41.8668122 7.29519651,42.5063319 C7.6150655,42.8259825 8.03406114,42.9858079 8.45305677,42.9858079 C8.87227074,42.9858079 9.29126638,42.8259825 9.61113537,42.5061135 L17.8334061,34.281441 C18.4729258,33.6417031 18.4727074,32.6050218 17.8329694,31.9655022 C17.1932314,31.3259825 16.1563319,31.3259825 15.5172489,31.9657205 Z" id="Shape" fill="#000000" fill-rule="nonzero"></path>
        <path d="M39.7018013,7.47983079 L31.4795306,15.7045033 C30.8400109,16.3442413 30.8402293,17.3809225 31.4797489,18.0204421 C31.7996179,18.3400928 32.2186136,18.4999181 32.6376092,18.4999181 C33.0568232,18.4999181 33.4758188,18.3400928 33.7956878,18.0202238 L42.0179585,9.79555131 C42.6574782,9.15581332 42.6572598,8.1191321 42.0175218,7.47961245 C41.3777839,6.8400928 40.3408843,6.8400928 39.7018013,7.47983079 Z" id="Shape" fill="#000000" fill-rule="nonzero"></path>
        <path d="M15.6933679,18.0089793 C16.0130186,18.3288483 16.4322325,18.4886736 16.8512282,18.4886736 C17.2702238,18.4886736 17.6894378,18.3288483 18.0093068,18.0089793 C18.6488264,17.3694596 18.6488264,16.33256 18.0090884,15.6932587 L9.79533297,7.47972162 C9.15581332,6.83998363 8.1191321,6.84020197 7.47961245,7.47972162 C6.8400928,8.11924127 6.8400928,9.15614083 7.47983079,9.79544214 L15.6933679,18.0089793 Z" id="Shape" fill="#000000" fill-rule="nonzero"></path>
        <path d="M33.7951147,31.4793123 C33.1551584,30.840011 32.1182588,30.8402293 31.4793942,31.4799673 C30.8398745,32.1197053 30.8403112,33.1566049 31.4800492,33.7959062 L39.6986082,42.0092249 C40.0184772,42.3286573 40.4372545,42.4884826 40.8562501,42.4884826 C41.2752457,42.4884826 41.6948964,42.3284389 42.014547,42.0085699 C42.6540667,41.3688319 42.65363,40.3319324 42.013892,39.6926311 L33.7951147,31.4793123 Z" id="Shape" fill="#000000" fill-rule="nonzero"></path>
    </g>
</svg>