<?xml version="1.0" encoding="UTF-8"?>
<svg width="22px" height="21px" viewBox="0 0 22 21" version="1.1" xmlns="http://www.w3.org/2000/svg" xmlns:xlink="http://www.w3.org/1999/xlink">
    <!-- Generator: Sketch 50.2 (55047) - http://www.bohemiancoding.com/sketch -->
    <title>ico-otherinformation</title>
    <desc>Created with Sketch.</desc>
    <defs></defs>
    <g id="Agent-Sales-Channel" stroke="none" stroke-width="1" fill="none" fill-rule="evenodd">
        <g id="2.2-Contacts---Personal" transform="translate(-709.000000, -168.000000)" fill="#000000" fill-rule="nonzero">
            <g id="steps" transform="translate(40.000000, 140.000000)">
                <g id="s4" transform="translate(600.000000, 0.000000)">
                    <g id="ico-otherinformation" transform="translate(69.000000, 28.000000)">
                        <path d="M11,0 C4.9346,0 0,4.5903876 0,10.2326202 C0,15.8748527 4.9346,20.4651163 11,20.4651163 C17.0654,20.4651163 22,15.8748527 22,10.2326202 C22,4.5903876 17.0654,0 11,0 Z M11,18.6046512 C6.03733333,18.6046512 2,14.8489922 2,10.2326202 C2,5.61624806 6.03733333,1.86046512 11,1.86046512 C15.9626667,1.86046512 20,5.61624806 20,10.2326202 C20,14.8489922 15.9626,18.6046512 11,18.6046512 Z" id="Shape"></path>
                        <path d="M10.9998667,4.34108527 C10.2648,4.34108527 9.6668,4.89773643 9.6668,5.58195349 C9.6668,6.26555039 10.2648,6.82170543 10.9998667,6.82170543 C11.7349333,6.82170543 12.3329333,6.26555039 12.3329333,5.58195349 C12.3329333,4.89773643 11.7349333,4.34108527 10.9998667,4.34108527 Z" id="Shape"></path>
                        <path d="M11,8.68217054 C10.4477333,8.68217054 10,9.09866667 10,9.6124031 L10,15.1937984 C10,15.7075349 10.4477333,16.124031 11,16.124031 C11.5522667,16.124031 12,15.7075349 12,15.1937984 L12,9.6124031 C12,9.09866667 11.5522667,8.68217054 11,8.68217054 Z" id="Shape"></path>
                    </g>
                </g>
            </g>
        </g>
    </g>
</svg>