<?xml version="1.0" encoding="UTF-8"?>
<svg width="31px" height="30px" viewBox="0 0 31 30" version="1.1" xmlns="http://www.w3.org/2000/svg" xmlns:xlink="http://www.w3.org/1999/xlink">
    <!-- Generator: Sketch 50.2 (55047) - http://www.bohemiancoding.com/sketch -->
    <title>ico-basicinformation</title>
    <desc>Created with Sketch.</desc>
    <defs></defs>
    <g id="Agent-Sales-Channel" stroke="none" stroke-width="1" fill="none" fill-rule="evenodd">
        <g id="2.2-Contacts---Personal" transform="translate(-99.000000, -165.000000)" fill="#000000" fill-rule="nonzero">
            <g id="steps" transform="translate(40.000000, 140.000000)">
                <g id="s1">
                    <g id="ico-basicinformation" transform="translate(59.000000, 25.000000)">
                        <path d="M15.5,17 C20.193282,17 24,13.1873854 24,8.48695973 C24,3.78653402 20.1932256,0 15.5,0 C10.8067744,0 7,3.81261456 7,8.48695973 C7,13.1613049 10.806718,17 15.5,17 Z M15.5,2.219669 C18.9416988,2.219669 21.7576905,5.03992442 21.7576905,8.48695973 C21.7576905,11.933995 18.9416988,14.754194 15.5,14.754194 C12.0583012,14.754194 9.2423095,11.9339386 9.2423095,8.48690328 C9.2423095,5.03986797 12.0582449,2.219669 15.5,2.219669 Z" id="Shape"></path>
                        <path d="M1.09440569,30 L29.9055943,30 C30.516428,30 31,29.4955832 31,28.8584191 C31,22.8849629 26.3423797,18 20.5902987,18 L10.4097013,18 C4.68309462,18 0,22.8583904 0,28.8584191 C0,29.4955832 0.48357205,30 1.09440569,30 Z M10.4097013,20.2831617 L20.5902987,20.2831617 C24.7643469,20.2831617 28.2002999,23.5221269 28.7348207,27.7167809 L2.26517935,27.7167809 C2.79964503,23.5486994 6.23565305,20.2831617 10.4097013,20.2831617 Z" id="Shape"></path>
                    </g>
                </g>
            </g>
        </g>
    </g>
</svg>