<?xml version="1.0" encoding="UTF-8"?>
<svg width="70px" height="70px" viewBox="0 0 70 70" version="1.1" xmlns="http://www.w3.org/2000/svg" xmlns:xlink="http://www.w3.org/1999/xlink">
    <!-- Generator: Sketch 50.2 (55047) - http://www.bohemiancoding.com/sketch -->
    <title>ico-underwritingreviews</title>
    <desc>Created with Sketch.</desc>
    <defs></defs>
    <g id="Agent-Sales-Channel" stroke="none" stroke-width="1" fill="none" fill-rule="evenodd">
        <g id="1.2-Home" transform="translate(-375.000000, -465.000000)" fill="#000000" fill-rule="nonzero">
            <g id="content" transform="translate(40.000000, 160.000000)">
                <g id="Button" transform="translate(260.000000, 260.000000)">
                    <g id="ico-underwritingreviews" transform="translate(75.000000, 45.000000)">
                        <path d="M69.6336132,38.1594402 L59.857659,17.9973028 C61.1472265,18.3772265 64.0375318,19.3791349 64.2792366,19.3791349 C65.0622392,19.3791349 65.7877099,18.9069466 66.0985242,18.1241221 C66.4784478,17.1223919 65.9834606,16.0054198 64.9815522,15.6139186 C58.5103817,13.1382697 50.1622137,11.5147328 41.2845038,11.0079898 C40.6972519,8.87770992 39.0391603,7.17366412 36.9320356,6.5173028 L36.9320356,1.94592875 C36.9320356,0.875089059 36.0683461,0 34.9861069,0 C33.9036896,0 33.0286005,0.86351145 33.0286005,1.94592875 L33.0286005,6.52870229 C30.9328753,7.18506361 29.2979389,8.87770992 28.710687,10.9964122 C19.8098219,11.5029771 11.4272774,13.1151145 4.97908397,15.602341 C3.97735369,15.9822646 3.4821883,17.1108142 3.86211196,18.1125445 C4.16152672,18.8839695 4.89839695,19.3561578 5.68139949,19.3561578 C5.91170483,19.3561578 8.80183206,18.365827 10.1029771,17.9743257 L0.21178117,38.4013232 C0.200203562,38.4243003 0.0160305344,39.3455216 0.0160305344,39.3684987 C0.361399491,46.4960305 6.21094148,52.0807125 13.3500509,52.0807125 C20.3854962,52.0807125 26.1543511,46.6688041 26.660916,39.6908906 C26.6838931,39.5526718 26.5342748,38.4013232 26.3844784,38.1824173 L15.9062087,16.5695165 C19.9248855,15.7403817 24.2889313,15.176285 28.8255725,14.9230025 C29.5049109,16.8689313 31.0593384,18.3889822 33.0284224,19.0106107 L33.0284224,57.6538168 L24.7034097,57.6538168 C24.1161578,57.6538168 23.551883,57.9302545 23.1719593,58.3792875 L16.5050382,66.7734097 C16.0328499,67.349084 15.952341,68.1552417 16.2863104,68.8230025 C16.6202799,69.502341 17.2880407,69.9283969 18.0364885,69.9283969 L51.9241476,69.9283969 C51.9357252,69.9283969 51.9357252,69.9283969 51.9357252,69.9283969 C53.0065649,69.9283969 53.8816539,69.0647074 53.8816539,67.9824682 C53.8816539,67.4413486 53.6629262,66.9461832 53.3059796,66.5892366 L46.7656997,58.3447328 C46.3971756,57.8727226 45.8330789,57.6192621 45.2342494,57.6192621 L36.9206361,57.6192621 L36.9206361,18.9876336 C38.9011196,18.365827 40.4671247,16.8459542 41.1464631,14.8884478 C45.6601272,15.1533079 50.024173,15.7175827 54.0428499,16.5349618 L43.460916,38.3781679 C43.4493384,38.401145 43.2651654,39.3223664 43.2651654,39.3453435 C43.6105344,46.4728753 49.4600763,52.0575573 56.5991858,52.0575573 C63.634631,52.0575573 69.403486,46.6456489 69.9100509,39.6677354 C69.933028,39.5412723 69.7832316,38.3783461 69.6336132,38.1594402 Z M13.3500509,48.1886768 C8.98600509,48.1886768 5.30129771,45.2410178 4.20748092,41.1877863 L22.4812214,41.1877863 C21.4102036,45.2410178 17.7140967,48.1886768 13.3500509,48.1886768 Z M21.6520865,37.2959288 L5.05959288,37.2959288 L13.3616285,20.1851145 L21.6520865,37.2959288 Z M44.3128499,61.5111196 L47.9054707,66.0479389 L22.0551654,66.0479389 L25.6477863,61.5111196 L44.3128499,61.5111196 Z M34.9861069,15.4295674 C33.5121883,15.4295674 32.3147074,14.2320865 32.3147074,12.7581679 C32.3147074,11.2842494 33.5121883,10.0867684 34.9861069,10.0867684 C36.4600254,10.0867684 37.6575064,11.2842494 37.6575064,12.7581679 C37.6575064,14.2320865 36.4598473,15.4295674 34.9861069,15.4295674 Z M56.5990076,20.1851145 L64.9010433,37.2959288 L48.296972,37.2959288 L56.5990076,20.1851145 Z M56.5990076,48.1886768 C52.2349618,48.1886768 48.5502545,45.2410178 47.4564377,41.1877863 L65.7301781,41.1877863 C64.6477608,45.2410178 60.9630534,48.1886768 56.5990076,48.1886768 Z" id="Shape"></path>
                    </g>
                </g>
            </g>
        </g>
    </g>
</svg>