<?xml version="1.0" encoding="UTF-8"?>
<svg width="62px" height="70px" viewBox="0 0 62 70" version="1.1" xmlns="http://www.w3.org/2000/svg" xmlns:xlink="http://www.w3.org/1999/xlink">
    <!-- Generator: Sketch 50.2 (55047) - http://www.bohemiancoding.com/sketch -->
    <title>ico-managerreviews</title>
    <desc>Created with Sketch.</desc>
    <defs></defs>
    <g id="Agent-Sales-Channel" stroke="none" stroke-width="1" fill="none" fill-rule="evenodd">
        <g id="1.2-Home" transform="translate(-639.000000, -465.000000)" fill="#000000" fill-rule="nonzero">
            <g id="content" transform="translate(40.000000, 160.000000)">
                <g id="Button" transform="translate(520.000000, 260.000000)">
                    <g id="ico-managerreviews" transform="translate(79.000000, 45.000000)">
                        <path d="M40.2117187,34.5594922 C45.6019922,31.3092773 49.21875,25.3693945 49.21875,18.59375 C49.21875,8.34107422 40.9389258,0 30.7617188,0 C20.5845117,0 12.3046875,8.34107422 12.3046875,18.59375 C12.3046875,25.3693945 15.9214453,31.3092773 21.3117188,34.5593555 C9.20253906,38.4520117 0,49.888125 0,63.8476562 C0,67.2400586 2.75994141,70 6.15234375,70 C6.72875,70 53.8846875,70 55.3710938,70 C58.7634961,70 61.5234375,67.2400586 61.5234375,63.8476562 C61.5234375,49.8900391 52.3229492,38.4526953 40.2117187,34.5594922 Z M16.40625,18.59375 C16.40625,10.6026758 22.8461133,4.1015625 30.7617188,4.1015625 C38.6773242,4.1015625 45.1171875,10.6026758 45.1171875,18.59375 C45.1171875,26.5846875 38.6773242,33.0859375 30.7617188,33.0859375 C22.8461133,33.0859375 16.40625,26.5846875 16.40625,18.59375 Z M34.596543,37.4643555 L30.7617188,40.6676758 L26.9268945,37.4643555 C28.1795117,37.2832031 29.4596094,37.1875 30.7617188,37.1875 C32.0638281,37.1875 33.3439258,37.2832031 34.596543,37.4643555 Z M24.9228711,65.8984375 L6.15234375,65.8984375 C5.02154297,65.8984375 4.1015625,64.978457 4.1015625,63.8476562 C4.1015625,55.3467578 8.10085938,47.7625586 14.3167773,42.8773242 L20.852207,52.6804687 C21.5690234,53.7554883 23.0924805,53.9091602 24.0086328,52.9930078 L24.7311914,52.2704492 L26.5783984,55.965 L24.9228711,65.8984375 Z M23.8735547,47.327793 C23.8716406,47.3295703 23.8698633,47.3314844 23.8679492,47.3333984 L22.8774219,48.3239258 L17.7272266,40.5986328 C19.0930469,39.8298633 20.5329687,39.1778516 22.0335937,38.6564063 C22.2315625,38.9130273 21.8637891,38.5792969 27.7256055,43.4757422 L23.8735547,47.327793 Z M29.0810352,65.8984375 L30.7338281,55.9816797 C30.7524219,55.8701172 30.7617188,55.7575977 30.7617188,55.645625 C30.7617188,55.7577344 30.7710156,55.8701172 30.7896094,55.9816797 L32.4424023,65.8984375 L29.0810352,65.8984375 Z M30.9781445,54.7274219 C30.8352734,55.0133008 30.7617188,55.3270703 30.7617188,55.6435742 C30.761582,55.3270703 30.6881641,55.0133008 30.545293,54.7274219 L27.7883594,49.213418 L30.7617188,46.2400586 L33.7350781,49.213418 L30.9781445,54.7274219 Z M39.4898437,38.6564063 C41.1997852,39.2505859 42.8308398,40.0141602 44.3633203,40.9270313 L38.7429492,48.4208594 L37.6550781,47.3329883 C37.6534375,47.3313477 37.6519336,47.329707 37.6501563,47.3280664 L33.797832,43.4757422 C39.6689453,38.5715039 39.2943359,38.9097461 39.4898437,38.6564063 Z M55.3710938,65.8984375 L36.6005664,65.8984375 L34.9450391,55.9651367 L36.7922461,52.2705859 L37.5148047,52.9931445 C38.3956836,53.8740234 39.8563867,53.7723047 40.6054688,52.7734375 L47.7182617,43.289668 C53.6410547,48.1836523 57.421875,55.5823242 57.421875,63.8476562 C57.421875,64.978457 56.5018945,65.8984375 55.3710938,65.8984375 Z" id="Shape"></path>
                    </g>
                </g>
            </g>
        </g>
    </g>
</svg>