<?xml version="1.0" encoding="UTF-8"?>
<svg width="28px" height="30px" viewBox="0 0 28 30" version="1.1" xmlns="http://www.w3.org/2000/svg" xmlns:xlink="http://www.w3.org/1999/xlink">
    <!-- Generator: Sketch 50.2 (55047) - http://www.bohemiancoding.com/sketch -->
    <title>ico-personaldataprotection</title>
    <desc>Created with Sketch.</desc>
    <defs></defs>
    <g id="Agent-Sales-Channel" stroke="none" stroke-width="1" fill="none" fill-rule="evenodd">
        <g id="2.2-Contacts---Personal" transform="translate(-901.000000, -167.000000)" fill="#000000" fill-rule="nonzero">
            <g id="steps" transform="translate(40.000000, 140.000000)">
                <g id="s5" transform="translate(800.000000, 0.000000)">
                    <g id="ico-personaldataprotection" transform="translate(61.000000, 27.000000)">
                        <path d="M27.5279898,7.69827907 C27.5111602,6.89106977 27.4950956,6.12851163 27.4950956,5.3907907 C27.4950956,4.81283721 26.9814875,4.34427907 26.3476243,4.34427907 C21.440272,4.34427907 17.7039524,3.05804651 14.5895623,0.296372093 C14.1440374,-0.0987906977 13.4350531,-0.0986511628 12.9896813,0.296372093 C9.87559711,3.05804651 6.1398895,4.34427907 1.23284318,4.34427907 C0.599133022,4.34427907 0.0853718657,4.81283721 0.0853718657,5.3907907 C0.0853718657,6.12865116 0.0694602635,6.89148837 0.0524776881,7.69883721 C-0.10480238,15.2108372 -0.320220994,25.4988837 13.4137867,29.8405116 C13.5355716,29.8790233 13.6625584,29.8982791 13.7895453,29.8982791 C13.9165321,29.8982791 14.0436719,29.8790233 14.1653039,29.8405116 C27.9003825,25.4987442 27.6852699,15.2104186 27.5279898,7.69827907 Z M13.7896983,27.7412093 C2.01098173,23.8388372 2.18906927,15.2902326 2.34711432,7.73874419 C2.35660008,7.28553488 2.36577986,6.84627907 2.37220569,6.41567442 C6.96821079,6.23874419 10.6434849,4.96855814 13.7896983,2.46893023 C16.9362176,4.96855814 20.6121037,6.23888372 25.2084148,6.41567442 C25.2148406,6.84613953 25.2240204,7.28511628 25.2335062,7.73804651 C25.3913982,15.289814 25.5693328,23.8386977 13.7896983,27.7412093 Z" id="Shape"></path>
                        <path d="M17.7411305,11.3137674 L12.2028219,16.3645116 L9.83949001,14.2091163 C9.39136422,13.8005581 8.66478538,13.8005581 8.21681258,14.2091163 C7.76868678,14.6179535 7.76868678,15.2804651 8.21681258,15.6891628 L11.3914832,18.5845116 C11.6154696,18.7887907 11.9092223,18.8909302 12.2028219,18.8909302 C12.4964216,18.8909302 12.7901742,18.7887907 13.0141606,18.5845116 L19.3636549,12.793814 C19.8119337,12.3851163 19.8119337,11.7224651 19.3638079,11.313907 C18.9158351,10.9052093 18.1892563,10.9050698 17.7411305,11.3137674 Z" id="Shape"></path>
                    </g>
                </g>
            </g>
        </g>
    </g>
</svg>