<?xml version="1.0" encoding="UTF-8"?>
<svg width="70px" height="70px" viewBox="0 0 70 70" version="1.1" xmlns="http://www.w3.org/2000/svg" xmlns:xlink="http://www.w3.org/1999/xlink">
    <!-- Generator: Sketch 50.2 (55047) - http://www.bohemiancoding.com/sketch -->
    <title>ico-clients</title>
    <desc>Created with Sketch.</desc>
    <defs></defs>
    <g id="Agent-Sales-Channel" stroke="none" stroke-width="1" fill="none" fill-rule="evenodd">
        <g id="1.2-Home" transform="translate(-1155.000000, -205.000000)" fill="#000000" fill-rule="nonzero">
            <g id="content" transform="translate(40.000000, 160.000000)">
                <g id="Button" transform="translate(1040.000000, 0.000000)">
                    <g id="ico-clients" transform="translate(75.000000, 45.000000)">
                        <path d="M58.3704297,17.7709766 C60.3918164,15.8969727 61.6601562,13.22125 61.6601562,10.2539062 C61.6601562,4.59990234 57.0602539,0 51.40625,0 C45.7522461,0 41.1523438,4.59990234 41.1523438,10.2539062 C41.1523438,13.2226172 42.4217773,15.8992969 44.444668,17.7735742 C41.0500781,19.1577148 38.0996875,21.5383984 36.0255273,24.6613281 C35.6867383,24.6270117 35.344668,24.6095117 34.9998633,24.6095117 C34.6550586,24.6095117 34.3129883,24.6270117 33.9741992,24.6613281 C31.9000391,21.5383984 28.9496484,19.1577148 25.5550586,17.7735742 C27.5782227,15.8992969 28.8476562,13.2226172 28.8476562,10.2539062 C28.8476562,4.59990234 24.2477539,0 18.59375,0 C12.9397461,0 8.33984375,4.59990234 8.33984375,10.2539062 C8.33984375,13.22125 9.60818359,15.8969727 11.6295703,17.7709766 C5.04492188,20.4637891 0,27.0429688 0,35 L0,43.203125 C0,44.3357031 0.918203125,45.2539062 2.05078125,45.2539062 L23.4133594,45.2539062 C19.2258008,48.640293 16.5429688,53.8170117 16.5429688,59.609375 L16.5429688,67.9492188 C16.5429688,69.0817969 17.4611719,70 18.59375,70 L51.40625,70 C52.5388281,70 53.4570312,69.0817969 53.4570312,67.9492188 L53.4570312,59.609375 C53.4570312,53.8170117 50.7741992,48.640293 46.5866406,45.2539062 L67.9492188,45.2539062 C69.0817969,45.2539062 70,44.3357031 70,43.203125 L70,35 C70,27.1177539 65.026582,20.4931836 58.3704297,17.7709766 Z M51.40625,4.1015625 C54.7986523,4.1015625 57.5585938,6.86150391 57.5585938,10.2539062 C57.5585938,13.6463086 54.7986523,16.40625 51.40625,16.40625 C48.0138477,16.40625 45.2539062,13.6463086 45.2539062,10.2539062 C45.2539062,6.86150391 48.0138477,4.1015625 51.40625,4.1015625 Z M35,28.7109375 C38.3349805,28.7109375 41.1523438,31.590918 41.1523438,35 C41.1523438,38.3924023 38.3924023,41.1523438 35,41.1523438 C31.6075977,41.1523438 28.8476562,38.3924023 28.8476562,35 C28.8476562,31.590918 31.6650195,28.7109375 35,28.7109375 Z M33.3823437,59.2271094 L35,55.9919336 L36.6176562,59.2271094 L35,60.8986328 L33.3823437,59.2271094 Z M35,47.8173828 L33.2863672,45.356582 C33.8485547,45.2894531 34.4201758,45.2539062 35,45.2539062 C35.5798242,45.2539062 36.1514453,45.2894531 36.7136328,45.356582 L35,47.8173828 Z M18.59375,4.1015625 C21.9861523,4.1015625 24.7460938,6.86150391 24.7460938,10.2539062 C24.7460938,13.6463086 21.9861523,16.40625 18.59375,16.40625 C15.2013477,16.40625 12.4414062,13.6463086 12.4414062,10.2539062 C12.4414062,6.86150391 15.2013477,4.1015625 18.59375,4.1015625 Z M4.1015625,41.1523438 L4.1015625,35 C4.1015625,27.0090625 10.6026758,20.5078125 18.59375,20.5078125 C23.0394336,20.5078125 27.1917188,22.5695313 29.89,26.0054102 C29.1120703,26.4645117 28.3860938,27.0294336 27.7329883,27.6975781 C25.8068945,29.6681055 24.7460938,32.2613867 24.7460938,35 C24.7460938,37.306582 25.5121289,39.4373438 26.8024805,41.1523438 L4.1015625,41.1523438 Z M20.6445312,59.609375 C20.6445312,53.7952734 24.1189648,48.7772852 29.1004492,46.522793 L32.620957,51.5785156 L29.064082,58.6922656 C28.6748438,59.4707422 28.8193555,60.4101367 29.4247461,61.035625 L33.5263086,65.2739062 C33.9119922,65.6724414 34.4427344,65.8977539 34.9974023,65.8984375 L20.6445312,65.8984375 L20.6445312,59.609375 Z M49.3554688,59.609375 L49.3554688,65.8984375 L35.0025977,65.8984375 C35.5572656,65.8977539 36.0878711,65.6724414 36.4736914,65.2739062 L40.5752539,61.035625 C41.1805078,60.4101367 41.3250195,59.4707422 40.935918,58.6922656 L37.379043,51.5785156 L40.8995508,46.522793 C45.8810352,48.7772852 49.3554688,53.7952734 49.3554688,59.609375 Z M65.8984375,41.1523438 L43.1975195,41.1523438 C44.4878711,39.4373438 45.2539062,37.306582 45.2539062,35 C45.2539062,32.2613867 44.1931055,29.6681055 42.2670117,27.6975781 C41.6139062,27.0292969 40.8880664,26.4645117 40.11,26.0054102 C42.8082813,22.5695313 46.9605664,20.5078125 51.40625,20.5078125 C59.3973242,20.5078125 65.8984375,27.0090625 65.8984375,35 L65.8984375,41.1523438 Z" id="Shape"></path>
                    </g>
                </g>
            </g>
        </g>
    </g>
</svg>