<?xml version="1.0" encoding="UTF-8"?>
<svg width="30px" height="30px" viewBox="0 0 30 30" version="1.1" xmlns="http://www.w3.org/2000/svg" xmlns:xlink="http://www.w3.org/1999/xlink">
    <!-- Generator: Sketch 50.2 (55047) - http://www.bohemiancoding.com/sketch -->
    <title>ico-phone</title>
    <desc>Created with Sketch.</desc>
    <defs></defs>
    <g id="Agent-Sales-Channel" stroke="none" stroke-width="1" fill="none" fill-rule="evenodd">
        <g id="5.1-Clients" transform="translate(-1230.000000, -184.000000)" fill="#000000" fill-rule="nonzero">
            <g id="content" transform="translate(40.000000, 170.000000)">
                <g id="Group">
                    <g id="ico-phone" transform="translate(1190.000000, 14.000000)">
                        <path d="M23.6997468,18.5763291 C23.0858228,17.9370886 22.3453165,17.5953165 21.5605063,17.5953165 C20.7820253,17.5953165 20.0351899,17.9307595 19.3959494,18.57 L17.3959494,20.5636709 C17.2313924,20.4750633 17.0668354,20.3927848 16.9086076,20.3105063 C16.6807595,20.1965823 16.4655696,20.0889873 16.2820253,19.9750633 C14.4086076,18.7851899 12.7060759,17.234557 11.0731646,15.2282278 C10.2820253,14.2282278 9.75037975,13.3864557 9.3643038,12.5320253 C9.88329114,12.0573418 10.3643038,11.5636709 10.8326582,11.0889873 C11.0098734,10.9117722 11.1870886,10.7282278 11.3643038,10.5510127 C12.6934177,9.22189873 12.6934177,7.50037975 11.3643038,6.17126582 L9.6364557,4.44341772 C9.44025316,4.24721519 9.23772152,4.04468354 9.0478481,3.8421519 C8.66810127,3.44974684 8.26936709,3.04468354 7.85797468,2.66493671 C7.24405063,2.05734177 6.50987342,1.73455696 5.73772152,1.73455696 C4.96556962,1.73455696 4.21873418,2.05734177 3.58582278,2.66493671 C3.57949367,2.67126582 3.57949367,2.67126582 3.57316456,2.67759494 L1.42126582,4.84848101 C0.611139241,5.65860759 0.149113924,6.64594937 0.0478481013,7.79151899 C-0.104050633,9.63962025 0.440253165,11.3611392 0.857974684,12.4877215 C1.88329114,15.2535443 3.41493671,17.8168354 5.69974684,20.5636709 C8.47189873,23.8737975 11.8073418,26.4877215 15.6174684,28.3294937 C17.0731646,29.0193671 19.0162025,29.8358228 21.1870886,29.9750633 C21.32,29.9813924 21.4592405,29.9877215 21.5858228,29.9877215 C23.0478481,29.9877215 24.2756962,29.4624051 25.2377215,28.4181013 C25.2440506,28.405443 25.2567089,28.3991139 25.263038,28.3864557 C25.5921519,27.9877215 25.9718987,27.626962 26.3706329,27.2408861 C26.6427848,26.9813924 26.9212658,26.7092405 27.1934177,26.4244304 C27.82,25.7725316 28.1491139,25.013038 28.1491139,24.234557 C28.1491139,23.4497468 27.8136709,22.6965823 27.1744304,22.0636709 L23.6997468,18.5763291 Z M25.9655696,25.2408861 C25.9592405,25.2408861 25.9592405,25.2472152 25.9655696,25.2408861 C25.7187342,25.5067089 25.4655696,25.7472152 25.1934177,26.013038 C24.7820253,26.405443 24.3643038,26.8168354 23.9718987,27.2788608 C23.3326582,27.9624051 22.5794937,28.2851899 21.5921519,28.2851899 C21.4972152,28.2851899 21.3959494,28.2851899 21.3010127,28.2788608 C19.4212658,28.1586076 17.6744304,27.4244304 16.3643038,26.7978481 C12.7820253,25.0636709 9.6364557,22.6016456 7.02253165,19.4813924 C4.8643038,16.8801266 3.42126582,14.4750633 2.46556962,11.8927848 C1.87696203,10.3168354 1.66177215,9.08898734 1.75670886,7.93075949 C1.82,7.19025316 2.10481013,6.57632911 2.63012658,6.05101266 L4.78835443,3.89278481 C5.09848101,3.60164557 5.42759494,3.44341772 5.75037975,3.44341772 C6.14911392,3.44341772 6.47189873,3.68392405 6.67443038,3.8864557 C6.68075949,3.89278481 6.68708861,3.89911392 6.69341772,3.90544304 C7.07949367,4.26620253 7.44658228,4.63962025 7.83265823,5.03835443 C8.02886076,5.24088608 8.23139241,5.44341772 8.43392405,5.65227848 L10.1617722,7.38012658 C10.8326582,8.05101266 10.8326582,8.67126582 10.1617722,9.3421519 C9.97822785,9.5256962 9.80101266,9.70924051 9.61746835,9.8864557 C9.08582278,10.4307595 8.57949367,10.9370886 8.02886076,11.4307595 C8.01620253,11.4434177 8.0035443,11.4497468 7.99721519,11.4624051 C7.45291139,12.0067089 7.55417722,12.5383544 7.66810127,12.8991139 C7.67443038,12.9181013 7.68075949,12.9370886 7.68708861,12.9560759 C8.1364557,14.0446835 8.76936709,15.07 9.73139241,16.291519 L9.73772152,16.2978481 C11.484557,18.4497468 13.3263291,20.126962 15.3579747,21.4117722 C15.6174684,21.5763291 15.8832911,21.7092405 16.1364557,21.8358228 C16.3643038,21.9497468 16.5794937,22.0573418 16.763038,22.1712658 C16.7883544,22.1839241 16.8136709,22.2029114 16.8389873,22.2155696 C17.0541772,22.3231646 17.2567089,22.3737975 17.4655696,22.3737975 C17.9908861,22.3737975 18.32,22.0446835 18.4275949,21.9370886 L20.5921519,19.7725316 C20.8073418,19.5573418 21.1491139,19.2978481 21.5478481,19.2978481 C21.9402532,19.2978481 22.263038,19.5446835 22.4592405,19.7598734 C22.4655696,19.7662025 22.4655696,19.7662025 22.4718987,19.7725316 L25.9592405,23.2598734 C26.6111392,23.905443 26.6111392,24.57 25.9655696,25.2408861 Z" id="Shape"></path>
                        <path d="M16.2060759,7.13329114 C17.8643038,7.41177215 19.3706329,8.19658228 20.5731646,9.39911392 C21.7756962,10.6016456 22.5541772,12.1079747 22.8389873,13.7662025 C22.9086076,14.1839241 23.2693671,14.4750633 23.6807595,14.4750633 C23.7313924,14.4750633 23.7756962,14.4687342 23.8263291,14.4624051 C24.2946835,14.3864557 24.6048101,13.9434177 24.5288608,13.4750633 C24.1870886,11.4687342 23.2377215,9.63962025 21.7883544,8.19025316 C20.3389873,6.74088608 18.5098734,5.79151899 16.5035443,5.44974684 C16.0351899,5.37379747 15.598481,5.68392405 15.5162025,6.14594937 C15.4339241,6.60797468 15.7377215,7.05734177 16.2060759,7.13329114 Z" id="Shape"></path>
                        <path d="M29.9529114,13.2282278 C29.3896203,9.92443038 27.8326582,6.91810127 25.4402532,4.5256962 C23.0478481,2.13329114 20.041519,0.576329114 16.7377215,0.0130379747 C16.2756962,-0.0692405063 15.8389873,0.24721519 15.7567089,0.709240506 C15.6807595,1.17759494 15.9908861,1.6143038 16.4592405,1.69658228 C19.4086076,2.19658228 22.098481,3.59531646 24.2377215,5.72822785 C26.376962,7.86746835 27.7693671,10.5573418 28.2693671,13.5067089 C28.3389873,13.9244304 28.6997468,14.2155696 29.1111392,14.2155696 C29.1617722,14.2155696 29.2060759,14.2092405 29.2567089,14.2029114 C29.7187342,14.1332911 30.0351899,13.6902532 29.9529114,13.2282278 Z" id="Shape"></path>
                    </g>
                </g>
            </g>
        </g>
    </g>
</svg>