<?xml version="1.0" encoding="UTF-8"?>
<svg width="61px" height="70px" viewBox="0 0 61 70" version="1.1" xmlns="http://www.w3.org/2000/svg" xmlns:xlink="http://www.w3.org/1999/xlink">
    <!-- Generator: Sketch 50.2 (55047) - http://www.bohemiancoding.com/sketch -->
    <title>ico-policies</title>
    <desc>Created with Sketch.</desc>
    <defs></defs>
    <g id="Agent-Sales-Channel" stroke="none" stroke-width="1" fill="none" fill-rule="evenodd">
        <g id="1.2-Home" transform="translate(-120.000000, -465.000000)" fill="#000000" fill-rule="nonzero">
            <g id="content" transform="translate(40.000000, 160.000000)">
                <g id="Button" transform="translate(0.000000, 260.000000)">
                    <g id="ico-policies" transform="translate(80.000000, 45.000000)">
                        <path d="M27.4606582,43.9380042 L48.5290234,43.9380042 C49.3497028,43.9380042 50.0152229,43.2726327 50.0152229,42.4518047 C50.0152229,41.6309766 49.3497028,40.9656051 48.5290234,40.9656051 L27.4606582,40.9656051 C26.6398301,40.9656051 25.9744586,41.6309766 25.9744586,42.4518047 C25.9744586,43.2726327 26.6398301,43.9380042 27.4606582,43.9380042 Z" id="Shape"></path>
                        <path d="M27.4606582,32.6428875 L35.5084289,32.6428875 C36.3291083,32.6428875 36.9946285,31.9775159 36.9946285,31.1566879 C36.9946285,30.3358599 36.3291083,29.6704883 35.5084289,29.6704883 L27.4606582,29.6704883 C26.6398301,29.6704883 25.9744586,30.3358599 25.9744586,31.1566879 C25.9744586,31.9775159 26.6398301,32.6428875 27.4606582,32.6428875 Z" id="Shape"></path>
                        <path d="M27.4606582,49.8828025 L48.5290234,49.8828025 C49.3497028,49.8828025 50.0152229,49.217431 50.0152229,48.396603 C50.0152229,47.5757749 49.3497028,46.9104034 48.5290234,46.9104034 L27.4606582,46.9104034 C26.6398301,46.9104034 25.9744586,47.5757749 25.9744586,48.396603 C25.9744586,49.217431 26.6398301,49.8828025 27.4606582,49.8828025 Z" id="Shape"></path>
                        <path d="M27.4606582,55.8276008 L48.5290234,55.8276008 C49.3497028,55.8276008 50.0152229,55.1622293 50.0152229,54.3414013 C50.0152229,53.5205732 49.3497028,52.8552017 48.5290234,52.8552017 L27.4606582,52.8552017 C26.6398301,52.8552017 25.9744586,53.5205732 25.9744586,54.3414013 C25.9744586,55.1622293 26.6398301,55.8276008 27.4606582,55.8276008 Z" id="Shape"></path>
                        <path d="M58.4862633,15.2565817 L53.0871975,15.2565817 L53.0871975,9.85796178 C53.0871975,8.62679406 52.0890658,7.62866242 50.8578981,7.62866242 L45.458535,7.62866242 L45.458535,2.22929936 C45.458535,0.998131635 44.4604034,0 43.2292357,0 L2.24579618,0 C1.01462845,0 0.0164968153,0.998131635 0.0164968153,2.22929936 L0.0164968153,52.4598726 C0.0164968153,53.6910403 1.01462845,54.689172 2.24579618,54.689172 L7.64515924,54.689172 L7.64515924,60.088535 C7.64515924,61.3197028 8.64329087,62.3178344 9.8744586,62.3178344 L15.2741189,62.3178344 L15.2741189,67.7171975 C15.2741189,68.9483652 16.2722505,69.9464968 17.5034183,69.9464968 L58.4864119,69.9464968 C59.7175796,69.9464968 60.7157113,68.9483652 60.7157113,67.7171975 L60.7157113,17.4858811 C60.7155626,16.2547134 59.717431,15.2565817 58.4862633,15.2565817 Z M7.64515924,9.85796178 L7.64515924,50.2305732 L4.47509554,50.2305732 L4.47509554,4.45859873 L40.9999363,4.45859873 L40.9999363,7.62866242 L9.8744586,7.62866242 C8.64329087,7.62866242 7.64515924,8.62679406 7.64515924,9.85796178 Z M15.2739703,17.4858811 L15.2739703,57.8592357 L12.1036093,57.8592357 L12.1036093,12.0872611 L48.6284501,12.0872611 L48.6284501,15.2565817 L17.5032696,15.2565817 C16.2721019,15.2565817 15.2739703,16.2547134 15.2739703,17.4858811 Z M56.2569639,65.4878981 L19.732569,65.4878981 L19.732569,19.7151805 L56.2569639,19.7151805 L56.2569639,65.4878981 Z" id="Shape"></path>
                    </g>
                </g>
            </g>
        </g>
    </g>
</svg>