<?xml version="1.0" encoding="UTF-8"?>
<svg width="63px" height="70px" viewBox="0 0 63 70" version="1.1" xmlns="http://www.w3.org/2000/svg" xmlns:xlink="http://www.w3.org/1999/xlink">
    <!-- Generator: Sketch 50.2 (55047) - http://www.bohemiancoding.com/sketch -->
    <title>ico-contacts</title>
    <desc>Created with Sketch.</desc>
    <defs></defs>
    <g id="Agent-Sales-Channel" stroke="none" stroke-width="1" fill="none" fill-rule="evenodd">
        <g id="1.2-Home" transform="translate(-119.000000, -205.000000)" fill="#000000" fill-rule="nonzero">
            <g id="content" transform="translate(40.000000, 160.000000)">
                <g id="Button">
                    <g id="ico-contacts" transform="translate(79.000000, 45.000000)">
                        <path d="M60.4950917,0 L7.87146789,0 C6.54114679,0 5.46321101,1.07825688 5.46321101,2.40825688 L5.46321101,16.2955505 L2.43972477,16.2955505 C1.10940367,16.2955505 0.0314678899,17.3738073 0.0314678899,18.7038073 C0.0314678899,20.0338073 1.10940367,21.1120642 2.43972477,21.1120642 L5.46321101,21.1120642 L5.46321101,32.591422 L2.43972477,32.591422 C1.10940367,32.591422 0.0314678899,33.6696789 0.0314678899,34.9996789 C0.0314678899,36.3296789 1.10940367,37.4079358 2.43972477,37.4079358 L5.46321101,37.4079358 L5.46321101,48.8869725 L2.43972477,48.8869725 C1.10940367,48.8869725 0.0314678899,49.9652294 0.0314678899,51.2952294 C0.0314678899,52.6252294 1.10940367,53.7034862 2.43972477,53.7034862 L5.46321101,53.7034862 L5.46321101,67.5907798 C5.46321101,68.9207798 6.54114679,69.9990367 7.87146789,69.9990367 L60.4954128,69.9990367 C61.8257339,69.9990367 62.9036697,68.9207798 62.9036697,67.5907798 L62.9036697,2.40825688 C62.9033486,1.07825688 61.8254128,0 60.4950917,0 Z M58.087156,65.1825229 L10.2797248,65.1825229 L10.2797248,53.7034862 L13.303211,53.7034862 C14.6335321,53.7034862 15.7114679,52.6252294 15.7114679,51.2952294 C15.7114679,49.9652294 14.6335321,48.8869725 13.303211,48.8869725 L10.2797248,48.8869725 L10.2797248,37.4079358 L13.303211,37.4079358 C14.6335321,37.4079358 15.7114679,36.3296789 15.7114679,34.9996789 C15.7114679,33.6696789 14.6335321,32.591422 13.303211,32.591422 L10.2797248,32.591422 L10.2797248,21.1120642 L13.303211,21.1120642 C14.6335321,21.1120642 15.7114679,20.0338073 15.7114679,18.7038073 C15.7114679,17.3738073 14.6335321,16.2955505 13.303211,16.2955505 L10.2797248,16.2955505 L10.2797248,4.81651376 L58.087156,4.81651376 L58.087156,65.1825229 Z" id="Shape"></path>
                        <path d="M35.9061468,36.1068349 C41.3661468,36.1068349 45.8082569,31.6631193 45.8082569,26.2011927 C45.8082569,20.738945 41.3661468,16.2952294 35.9061468,16.2952294 C30.4445413,16.2952294 26.0011468,20.738945 26.0011468,26.2011927 C26.0011468,31.6631193 30.4445413,36.1068349 35.9061468,36.1068349 Z M35.9061468,21.1120642 C38.7103211,21.1120642 40.9917431,23.3950917 40.9917431,26.2015138 C40.9917431,29.0076147 38.7106422,31.2906422 35.9061468,31.2906422 C33.100367,31.2906422 30.8176606,29.0076147 30.8176606,26.2015138 C30.8176606,23.3950917 33.100367,21.1120642 35.9061468,21.1120642 Z" id="Shape"></path>
                        <path d="M24.8801835,54.1183486 C26.2105046,54.1183486 27.2884404,53.0400917 27.2884404,51.7100917 L27.2884404,47.5483028 C27.2884404,44.8770642 29.4622936,42.7035321 32.1338532,42.7035321 L39.7381651,42.7035321 C42.4097248,42.7035321 44.583578,44.8767431 44.583578,47.5483028 L44.583578,51.7100917 C44.583578,53.0400917 45.6615138,54.1183486 46.9918349,54.1183486 C48.3218349,54.1183486 49.4000917,53.0400917 49.4000917,51.7100917 L49.4000917,47.5483028 C49.4000917,42.2212385 45.0658716,37.8870183 39.7381651,37.8870183 L32.1338532,37.8870183 C26.8061468,37.8870183 22.4719266,42.2209174 22.4719266,47.5483028 L22.4719266,51.7100917 C22.4719266,53.0400917 23.5501835,54.1183486 24.8801835,54.1183486 Z" id="Shape"></path>
                    </g>
                </g>
            </g>
        </g>
    </g>
</svg>