<?xml version="1.0" encoding="UTF-8"?>
<svg width="70px" height="67px" viewBox="0 0 70 67" version="1.1" xmlns="http://www.w3.org/2000/svg" xmlns:xlink="http://www.w3.org/1999/xlink">
    <!-- Generator: Sketch 50.2 (55047) - http://www.bohemiancoding.com/sketch -->
    <title>ico-businesscases</title>
    <desc>Created with Sketch.</desc>
    <defs></defs>
    <g id="Agent-Sales-Channel" stroke="none" stroke-width="1" fill="none" fill-rule="evenodd">
        <g id="1.2-Home" transform="translate(-375.000000, -207.000000)" fill="#000000" fill-rule="nonzero">
            <g id="content" transform="translate(40.000000, 160.000000)">
                <g id="Button" transform="translate(260.000000, 0.000000)">
                    <g id="ico-businesscases" transform="translate(75.000000, 47.000000)">
                        <path d="M59.6695608,12.5110811 L49.7931757,12.5110811 L49.7931757,7.57300676 C49.7931757,3.45790541 46.5010473,0.165777027 42.3859459,0.165777027 L27.982973,0.165777027 C23.8678716,0.165777027 20.5757432,3.45790541 20.5757432,7.57300676 L20.5757432,12.5113176 L10.2878716,12.5113176 C4.52658784,12.5110811 0,17.0379054 0,22.7989527 L0,55.7202365 C0,61.4815203 4.52658784,66.0081081 10.2878716,66.0081081 L59.6695608,66.0081081 C65.4308446,66.0081081 69.9574324,61.4815203 69.9574324,55.7202365 L69.9574324,22.7989527 C69.9574324,17.0379054 65.4308446,12.5110811 59.6695608,12.5110811 Z M24.6908446,7.57300676 C24.6908446,5.51533784 26.3367905,4.28087838 27.982973,4.28087838 L42.3859459,4.28087838 C44.4436149,4.28087838 45.6780743,5.92682432 45.6780743,7.57300676 L45.6780743,12.5113176 L24.6908446,12.5113176 L24.6908446,7.57300676 Z M10.2876351,16.6261824 L59.6693243,16.6261824 C62.9614527,16.6261824 65.8420946,19.5068243 65.8420946,22.7989527 L65.8420946,33.0868243 L49.3814527,33.0868243 L49.3814527,31.0291554 C49.3814527,29.7946959 48.5584797,28.9714865 47.3237838,28.9714865 C46.0890878,28.9714865 45.2661149,29.7944595 45.2661149,31.0291554 L45.2661149,33.0868243 L24.6903716,33.0868243 L24.6903716,31.0291554 C24.6903716,29.7946959 23.8673986,28.9714865 22.6327027,28.9714865 C21.3982432,28.9714865 20.5750338,29.7944595 20.5750338,31.0291554 L20.5750338,33.0868243 L4.11510135,33.0868243 L4.11510135,22.7989527 C4.11510135,19.5068243 6.99574324,16.6261824 10.2876351,16.6261824 Z M59.6695608,61.8930068 L10.2876351,61.8930068 C6.99550676,61.8930068 4.11486486,59.0123649 4.11486486,55.7202365 L4.11486486,37.2021622 L20.5755068,37.2021622 L20.5755068,39.2598311 C20.5755068,40.4942905 21.3984797,41.3175 22.6331757,41.3175 C23.8676351,41.3175 24.6908446,40.494527 24.6908446,39.2598311 L24.6908446,37.2021622 L45.2665878,37.2021622 L45.2665878,39.2598311 C45.2665878,40.4942905 46.0895608,41.3175 47.3242568,41.3175 C48.5589527,41.3175 49.3819257,40.494527 49.3819257,39.2598311 L49.3819257,37.2021622 L65.8425676,37.2021622 L65.8425676,55.7202365 C65.8423311,59.0123649 62.9616892,61.8930068 59.6695608,61.8930068 Z" id="Shape"></path>
                    </g>
                </g>
            </g>
        </g>
    </g>
</svg>