<?xml version="1.0" encoding="UTF-8"?>
<svg width="29px" height="30px" viewBox="0 0 29 30" version="1.1" xmlns="http://www.w3.org/2000/svg" xmlns:xlink="http://www.w3.org/1999/xlink">
    <!-- Generator: Sketch 50.2 (55047) - http://www.bohemiancoding.com/sketch -->
    <title>ico-contact</title>
    <desc>Created with Sketch.</desc>
    <defs></defs>
    <g id="Agent-Sales-Channel" stroke="none" stroke-width="1" fill="none" fill-rule="evenodd">
        <g id="2.2-Contacts---Personal" transform="translate(-301.000000, -165.000000)" fill="#000000" fill-rule="nonzero">
            <g id="steps" transform="translate(40.000000, 140.000000)">
                <g id="s2" transform="translate(200.000000, 0.000000)">
                    <g id="ico-contact" transform="translate(61.000000, 25.000000)">
                        <path d="M15.8740037,16.9825979 C17.8819441,18.8510103 20.0786732,20.0411134 21.2869208,19.9375052 C22.1895833,19.8600619 23.3276998,18.7089278 23.3276998,18.7089278 L20.7388353,16.3000206 L19.7063474,17.2607629 L15.5750661,13.4165567 L16.607554,12.4558144 L14.0186896,10.0469072 C14.0186896,10.0469072 12.7815254,11.1058763 12.6983653,11.9458144 C12.5870864,13.0701031 13.8659967,15.1141237 15.8740037,16.9825979 Z" id="Shape"></path>
                        <path d="M1.72329498,0 L1.72329498,7.03373196 L0.227610014,7.03373196 L0.227610014,8.88940206 L1.72329498,8.88940206 L1.72329498,14.0674639 L0.0614227958,14.0674639 L0.0614227958,15.923134 L1.72329498,15.923134 L1.72329498,21.1011959 L0.0614227958,21.1011959 L0.0614227958,22.956866 L1.72329498,22.956866 L1.72329498,29.9905979 L28.9779988,29.9905979 L28.9779988,0 L1.72329498,0 Z M3.7175416,22.956866 L5.37941378,22.956866 L5.37941378,21.1011959 L3.7175416,21.1011959 L3.7175416,15.923134 L5.37941378,15.923134 L5.37941378,14.0674639 L3.7175416,14.0674639 L3.7175416,8.88940206 L5.37941378,8.88940206 L5.37941378,7.03373196 L3.7175416,7.03373196 L3.7175416,1.8556701 L7.04128596,1.8556701 L7.04128596,28.1349897 L3.7175416,28.1349897 L3.7175416,22.956866 Z M26.9837521,28.1349897 L9.03553258,28.1349897 L9.03553258,1.8556701 L26.9837521,1.8556701 L26.9837521,28.1349897 Z" id="Shape"></path>
                    </g>
                </g>
            </g>
        </g>
    </g>
</svg>