<?xml version="1.0" encoding="UTF-8"?>
<svg width="25px" height="33px" viewBox="0 0 25 33" version="1.1" xmlns="http://www.w3.org/2000/svg" xmlns:xlink="http://www.w3.org/1999/xlink">
    <!-- Generator: Sketch 50.2 (55047) - http://www.bohemiancoding.com/sketch -->
    <title>ico-reviewnapproval</title>
    <desc>Created with Sketch.</desc>
    <defs></defs>
    <g id="Agent-Sales-Channel" stroke="none" stroke-width="1" fill="none" fill-rule="evenodd">
        <g id="8.1-Manager-Review" transform="translate(-1103.000000, -161.000000)" fill="#000000" fill-rule="nonzero">
            <g id="steps" transform="translate(40.000000, 140.000000)">
                <g id="s5" transform="translate(1000.000000, 0.000000)">
                    <g id="ico-reviewnapproval" transform="translate(63.000000, 21.000000)">
                        <path d="M12.073875,12.6781875 C11.6716875,12.276 11.017875,12.2739375 10.613625,12.676125 L7.21875,16.0730625 L5.886375,14.738625 C5.4841875,14.3364375 4.830375,14.3364375 4.4281875,14.738625 C4.026,15.1408125 4.026,15.794625 4.4281875,16.1968125 L6.4906875,18.2593125 C6.69075,18.4614375 6.95475,18.5625 7.21875,18.5625 C7.48275,18.5625 7.74675,18.4614375 7.948875,18.261375 L12.073875,14.136375 C12.4760625,13.7341875 12.4760625,13.080375 12.073875,12.6781875 Z" id="Shape"></path>
                        <path d="M12.073875,20.9281875 C11.6716875,20.526 11.017875,20.5239375 10.613625,20.926125 L7.21875,24.3230625 L5.886375,22.9906875 C5.4841875,22.5885 4.830375,22.5885 4.4281875,22.9906875 C4.026,23.392875 4.026,24.0466875 4.4281875,24.448875 L6.4906875,26.511375 C6.69075,26.7114375 6.95475,26.8125 7.21875,26.8125 C7.48275,26.8125 7.74675,26.7114375 7.948875,26.511375 L12.073875,22.386375 C12.4760625,21.9841875 12.4760625,21.330375 12.073875,20.9281875 Z" id="Shape"></path>
                        <path d="M19.59375,14.4375 L15.46875,14.4375 C14.8995,14.4375 14.4375,14.8995 14.4375,15.46875 C14.4375,16.038 14.8995,16.5 15.46875,16.5 L19.59375,16.5 C20.163,16.5 20.625,16.038 20.625,15.46875 C20.625,14.8995 20.163,14.4375 19.59375,14.4375 Z" id="Shape"></path>
                        <path d="M19.59375,22.6875 L15.46875,22.6875 C14.8995,22.6875 14.4375,23.1495 14.4375,23.71875 C14.4375,24.288 14.8995,24.75 15.46875,24.75 L19.59375,24.75 C20.163,24.75 20.625,24.288 20.625,23.71875 C20.625,23.1495 20.163,22.6875 19.59375,22.6875 Z" id="Shape"></path>
                        <path d="M22.6875,4.125 L18.5625,4.125 L18.5625,3.09375 C18.5625,2.5245 18.1005,2.0625 17.53125,2.0625 L15.2934375,2.0625 C14.8665,0.862125 13.71975,0 12.375,0 C11.03025,0 9.8835,0.862125 9.4565625,2.0625 L7.21875,2.0625 C6.6495,2.0625 6.1875,2.5245 6.1875,3.09375 L6.1875,4.125 L2.0625,4.125 C0.9260625,4.125 0,5.0510625 0,6.1875 L0,30.9375 C0,32.0739375 0.9260625,33 2.0625,33 L22.6875,33 C23.8239375,33 24.75,32.0739375 24.75,30.9375 L24.75,6.1875 C24.75,5.0510625 23.8239375,4.125 22.6875,4.125 Z M8.25,4.125 L10.3125,4.125 C10.88175,4.125 11.34375,3.663 11.34375,3.09375 C11.34375,2.5245 11.80575,2.0625 12.375,2.0625 C12.94425,2.0625 13.40625,2.5245 13.40625,3.09375 C13.40625,3.663 13.86825,4.125 14.4375,4.125 L16.5,4.125 L16.5,6.1875 L8.25,6.1875 L8.25,4.125 Z M22.6875,30.9375 L2.0625,30.9375 L2.0625,6.1875 L6.1875,6.1875 L6.1875,7.21875 C6.1875,7.788 6.6495,8.25 7.21875,8.25 L17.53125,8.25 C18.1005,8.25 18.5625,7.788 18.5625,7.21875 L18.5625,6.1875 L22.6875,6.1875 L22.6875,30.9375 Z" id="Shape"></path>
                    </g>
                </g>
            </g>
        </g>
    </g>
</svg>