<?xml version="1.0" encoding="UTF-8"?>
<svg width="30px" height="30px" viewBox="0 0 30 30" version="1.1" xmlns="http://www.w3.org/2000/svg" xmlns:xlink="http://www.w3.org/1999/xlink">
    <!-- Generator: Sketch 50.2 (55047) - http://www.bohemiancoding.com/sketch -->
    <title>ico-financialneedsanalysis</title>
    <desc>Created with Sketch.</desc>
    <defs></defs>
    <g id="Agent-Sales-Channel" stroke="none" stroke-width="1" fill="none" fill-rule="evenodd">
        <g id="3.1.1-Business-Cases---Prospect-Client" transform="translate(-300.000000, -165.000000)" fill="#000000" fill-rule="nonzero">
            <g id="steps" transform="translate(40.000000, 140.000000)">
                <g id="s2" transform="translate(190.000000, 0.000000)">
                    <g id="ico-financialneedsanalysis" transform="translate(70.000000, 25.000000)">
                        <path d="M27.2859064,0 C25.8376608,0 24.6594737,1.17824561 24.6594737,2.62643275 C24.6594737,2.91473684 24.7068421,3.19204678 24.7930994,3.45181287 L13.9934503,14.1436257 C13.7318129,14.0560234 13.4522222,14.0077778 13.161462,14.0077778 C12.8719298,14.0077778 12.5934503,14.0555556 12.332807,14.1425731 L10.4003509,12.210117 C10.4873099,11.9494152 10.5350292,11.6709942 10.5350292,11.381462 C10.5350292,9.93321637 9.35678363,8.75502924 7.90859649,8.75502924 C6.46035088,8.75502924 5.28216374,9.93327485 5.28216374,11.381462 C5.28216374,11.6709942 5.32994152,11.9494152 5.41684211,12.210117 L3.48438596,14.1425731 C3.22374269,14.055614 2.94526316,14.0077778 2.65573099,14.0077778 C1.20748538,14.0077778 0.0292982456,15.1860234 0.0292982456,16.6342105 C0.0292982456,18.0824561 1.20754386,19.2606433 2.65573099,19.2606433 C4.10391813,19.2606433 5.28216374,18.0823977 5.28216374,16.6342105 C5.28216374,16.1178363 5.13175439,15.6362573 4.87339181,15.2297076 L6.50415205,13.5990058 C6.91064327,13.8573684 7.3922807,14.0077193 7.90865497,14.0077193 C8.42502924,14.0077193 8.90660819,13.8573099 9.31315789,13.5990058 L10.9439181,15.2297076 C10.6855556,15.6362573 10.5351462,16.1178363 10.5351462,16.6342105 C10.5351462,18.0824561 11.7133918,19.2606433 13.1615789,19.2606433 C14.6097661,19.2606433 15.7880117,18.0823977 15.7880117,16.6342105 C15.7880117,16.1194152 15.638538,15.6391228 15.3815789,15.2333918 L25.8778363,4.84181287 C26.2850877,5.10157895 26.7680117,5.2528655 27.2859064,5.2528655 C28.734152,5.2528655 29.9123392,4.07461988 29.9123392,2.62643275 C29.9123392,1.17824561 28.7340936,0 27.2859064,0 Z M2.65561404,17.5096491 C2.1728655,17.5096491 1.78011696,17.1169006 1.78011696,16.634152 C1.78011696,16.1514035 2.1728655,15.758655 2.65561404,15.758655 C3.13836257,15.758655 3.53111111,16.1514035 3.53111111,16.634152 C3.53111111,17.1169006 3.13836257,17.5096491 2.65561404,17.5096491 Z M7.90853801,12.2567836 C7.42578947,12.2567836 7.03304094,11.8640351 7.03304094,11.3812865 C7.03304094,10.898538 7.42578947,10.5057895 7.90853801,10.5057895 C8.39128655,10.5057895 8.78403509,10.898538 8.78403509,11.3812865 C8.78403509,11.8640351 8.39128655,12.2567836 7.90853801,12.2567836 Z M13.1614035,17.5096491 C12.678655,17.5096491 12.2859064,17.1169006 12.2859064,16.634152 C12.2859064,16.1514035 12.678655,15.758655 13.1614035,15.758655 C13.644152,15.758655 14.0369006,16.1514035 14.0369006,16.634152 C14.0369006,17.1169006 13.644152,17.5096491 13.1614035,17.5096491 Z M27.2859064,3.50192982 C26.8031579,3.50192982 26.4104094,3.10918129 26.4104094,2.62643275 C26.4104094,2.14368421 26.8031579,1.75093567 27.2859064,1.75093567 C27.768655,1.75093567 28.1614035,2.14368421 28.1614035,2.62643275 C28.1614035,3.10918129 27.768655,3.50192982 27.2859064,3.50192982 Z" id="Shape"></path>
                        <path d="M28.420117,7.2580117 C27.6073099,8.0648538 13.6588889,21.9106433 13.1637427,22.4021053 C13.0982456,22.3366082 8.58222222,17.8205263 8.52467836,17.7633918 C8.18584795,17.4274854 7.63245614,17.4233333 7.28935673,17.7661988 L2.03660819,23.0190058 C1.87245614,23.1832749 1.78017544,23.405848 1.78017544,23.6380702 L1.78017544,29.0660819 C1.78017544,29.5495906 2.17216374,29.9415789 2.65567251,29.9415789 L29.0368421,29.9415789 C29.5203509,29.9415789 29.9123392,29.5495906 29.9123392,29.0660819 L29.9123392,7.87935673 C29.9123392,7.10274854 28.9711696,6.71081871 28.420117,7.2580117 Z M7.03304094,28.1905263 L3.53111111,28.1905263 L3.53111111,24.0006433 L7.03304094,20.4987135 L7.03304094,28.1905263 Z M12.2859649,28.1905263 L8.78403509,28.1905263 L8.78403509,20.4987135 L12.2859649,24.0005848 L12.2859649,28.1905263 Z M17.6016959,28.1905263 L14.0369006,28.1905263 L14.0369006,24.0024561 L17.6016959,20.4928655 L17.6016959,28.1905263 Z M22.7380702,28.1905263 L19.3409942,28.1905263 L19.3409942,18.7547953 L22.7380702,15.4116959 L22.7380702,28.1905263 Z M28.161345,28.1905263 L24.4773099,28.1905263 L24.4773099,13.6736257 L28.161345,9.98192982 L28.161345,28.1905263 Z" id="Shape"></path>
                    </g>
                </g>
            </g>
        </g>
    </g>
</svg>