<?xml version="1.0" encoding="UTF-8"?>
<svg width="35px" height="24px" viewBox="0 0 35 24" version="1.1" xmlns="http://www.w3.org/2000/svg" xmlns:xlink="http://www.w3.org/1999/xlink">
    <!-- Generator: Sketch 50.2 (55047) - http://www.bohemiancoding.com/sketch -->
    <title>ico-documentcenter</title>
    <desc>Created with Sketch.</desc>
    <defs></defs>
    <g id="Agent-Sales-Channel" stroke="none" stroke-width="1" fill="none" fill-rule="evenodd">
        <g id="3.1.1-Business-Cases---Prospect-Client" transform="translate(-898.000000, -168.000000)" fill="#000000" fill-rule="nonzero">
            <g id="steps" transform="translate(40.000000, 140.000000)">
                <g id="s5" transform="translate(800.000000, 0.000000)">
                    <g id="ico-documentcenter" transform="translate(58.000000, 28.000000)">
                        <path d="M27.2697081,7.15927665 C25.7665736,4.79953046 23.1684898,3.35911168 20.3399746,3.35911168 C19.9622589,3.35911168 19.5850761,3.38496193 19.2120685,3.43630711 C17.6764213,1.32236041 15.1927538,0.0377538071 12.5562056,0.0377538071 C8.07247462,0.0377538071 4.41604061,3.64790609 4.34062183,8.11413706 C1.68044416,9.53465736 0,12.3016117 0,15.3614467 C0,19.8922589 3.68610406,23.5783629 8.21691624,23.5783629 L26.7697589,23.5783629 C31.3005711,23.5783629 34.9866751,19.8922589 34.9866751,15.3614467 C34.9866751,10.9983503 31.5687563,7.41857868 27.2697081,7.15927665 Z M26.7697589,21.3575508 L18.6037437,21.3575508 L18.6037437,11.7614213 L22.0380964,15.1955964 C22.4717766,15.6292766 23.1748858,15.6292766 23.6084772,15.1955964 C24.0420685,14.7619162 24.0420685,14.0588959 23.6084772,13.6252157 L18.2785279,8.29544416 C17.8449365,7.86194162 17.1419162,7.86185279 16.7081472,8.29544416 L11.378198,13.6253934 C10.9446066,14.0590736 10.9446066,14.7620939 11.378198,15.1958629 C11.5950381,15.4125254 11.8792132,15.5209898 12.1633883,15.5209898 C12.4475635,15.5209898 12.7317386,15.4125254 12.9485787,15.1958629 L16.3829315,11.7614213 L16.3829315,21.3575508 L8.21691624,21.3575508 C4.9106599,21.3575508 2.22081218,18.6677919 2.22081218,15.3614467 C2.22081218,12.9380964 3.66505076,10.7664975 5.90016497,9.82913706 C6.34121827,9.64409898 6.61437817,9.19753807 6.57786802,8.72059645 C6.56614213,8.56771574 6.56027919,8.41110406 6.56027919,8.25484772 C6.56027919,4.94850254 9.25003807,2.25865482 12.5562056,2.25865482 C14.6742386,2.25865482 16.657335,3.3952665 17.7316751,5.22494924 C17.9787183,5.6456599 18.4712056,5.85601523 18.9463706,5.74293147 C19.4005711,5.63482234 19.8696066,5.58001269 20.3399746,5.58001269 C22.5678046,5.58001269 24.5997589,6.80465736 25.6430964,8.77611675 C25.8395051,9.14725888 26.2280584,9.37769036 26.648236,9.36685279 C26.6887437,9.36596447 26.7289848,9.36507614 26.7695812,9.36507614 C30.0759264,9.36507614 32.7656853,12.0550127 32.7656853,15.3614467 C32.7658629,18.6677919 30.0759264,21.3575508 26.7697589,21.3575508 Z" id="Shape"></path>
                    </g>
                </g>
            </g>
        </g>
    </g>
</svg>