<?xml version="1.0" encoding="UTF-8"?>
<svg width="29px" height="30px" viewBox="0 0 29 30" version="1.1" xmlns="http://www.w3.org/2000/svg" xmlns:xlink="http://www.w3.org/1999/xlink">
    <!-- Generator: Sketch 50.2 (55047) - http://www.bohemiancoding.com/sketch -->
    <title>ico-print</title>
    <desc>Created with Sketch.</desc>
    <defs></defs>
    <g id="Agent-Sales-Channel" stroke="none" stroke-width="1" fill="none" fill-rule="evenodd">
        <g id="5.1-Clients" transform="translate(-1322.000000, -184.000000)" fill="#000000" fill-rule="nonzero">
            <g id="content" transform="translate(40.000000, 170.000000)">
                <g id="Group">
                    <g id="ico-print" transform="translate(1282.000000, 14.000000)">
                        <path d="M24.1149068,6.14285714 L23.3447205,6.14285714 L23.3447205,4.42857143 C23.3447205,1.98757764 21.3571429,0 18.9161491,0 L9.61801242,0 C7.17701863,0 5.18944099,1.98757764 5.18944099,4.42857143 L5.18944099,6.14285714 L4.48757764,6.14285714 C2.04658385,6.14285714 0.0590062112,8.13043478 0.0590062112,10.5714286 L0.0590062112,17.7142857 C0.0590062112,20.1552795 2.04658385,22.1428571 4.48757764,22.1428571 L5.18322981,22.1428571 L5.18322981,27.757764 C5.18322981,28.9751553 6.17701863,29.9689441 7.39440994,29.9689441 L21.1273292,29.9689441 C22.3447205,29.9689441 23.3385093,28.9751553 23.3385093,27.757764 L23.3385093,22.1428571 L24.1149068,22.1428571 C26.5559006,22.1428571 28.5434783,20.1552795 28.5434783,17.7142857 L28.5434783,10.5714286 C28.5434783,8.13043478 26.5559006,6.14285714 24.1149068,6.14285714 Z M6.86024845,4.42857143 C6.86024845,2.91304348 8.09627329,1.67701863 9.61180124,1.67701863 L18.9037267,1.67701863 C20.4192547,1.67701863 21.6552795,2.91304348 21.6552795,4.42857143 L21.6552795,6.14285714 L6.86024845,6.14285714 L6.86024845,4.42857143 Z M21.6614907,27.7701863 C21.6614907,28.0621118 21.4192547,28.3043478 21.1273292,28.3043478 L7.39440994,28.3043478 C7.10248447,28.3043478 6.86024845,28.0621118 6.86024845,27.7701863 L6.86024845,18.5093168 L21.6614907,18.5093168 L21.6614907,27.7701863 Z M26.8664596,17.7204969 C26.8664596,19.2360248 25.6304348,20.4720497 24.1149068,20.4720497 L23.3447205,20.4720497 L23.3447205,18.5093168 L24.4503106,18.5093168 C24.9161491,18.5093168 25.2888199,18.136646 25.2888199,17.6708075 C25.2888199,17.2049689 24.9161491,16.8322981 24.4503106,16.8322981 L3.95341615,16.8322981 C3.48757764,16.8322981 3.11490683,17.2049689 3.11490683,17.6708075 C3.11490683,18.136646 3.48757764,18.5093168 3.95341615,18.5093168 L5.18944099,18.5093168 L5.18944099,20.4720497 L4.48757764,20.4720497 C2.97204969,20.4720497 1.73602484,19.2360248 1.73602484,17.7204969 L1.73602484,10.5776398 C1.73602484,9.0621118 2.97204969,7.82608696 4.48757764,7.82608696 L24.1149068,7.82608696 C25.6304348,7.82608696 26.8664596,9.0621118 26.8664596,10.5776398 L26.8664596,17.7204969 Z" id="Shape"></path>
                        <path d="M8.89130435,22.6335404 L19.568323,22.6335404 C20.0341615,22.6335404 20.4068323,22.2608696 20.4068323,21.7950311 C20.4068323,21.3291925 20.0341615,20.9565217 19.568323,20.9565217 L8.89130435,20.9565217 C8.42546584,20.9565217 8.05279503,21.3291925 8.05279503,21.7950311 C8.05279503,22.2608696 8.43167702,22.6335404 8.89130435,22.6335404 Z" id="Shape"></path>
                        <path d="M19.636646,24.3850932 L8.95341615,24.3850932 C8.48757764,24.3850932 8.11490683,24.757764 8.11490683,25.2236025 C8.11490683,25.689441 8.48757764,26.0621118 8.95341615,26.0621118 L19.6304348,26.0621118 C20.0962733,26.0621118 20.4689441,25.689441 20.4689441,25.2236025 C20.4689441,24.757764 20.0962733,24.3850932 19.636646,24.3850932 Z" id="Shape"></path>
                        <path d="M24.0962733,9.43478261 L22.3944099,9.43478261 C21.9285714,9.43478261 21.5559006,9.80745342 21.5559006,10.2732919 C21.5559006,10.7391304 21.9285714,11.1118012 22.3944099,11.1118012 L24.0962733,11.1118012 C24.5621118,11.1118012 24.9347826,10.7391304 24.9347826,10.2732919 C24.9347826,9.80745342 24.5621118,9.43478261 24.0962733,9.43478261 Z" id="Shape"></path>
                    </g>
                </g>
            </g>
        </g>
    </g>
</svg>