<?xml version="1.0" encoding="UTF-8"?>
<svg width="80px" height="62px" viewBox="0 0 80 62" version="1.1" xmlns="http://www.w3.org/2000/svg" xmlns:xlink="http://www.w3.org/1999/xlink">
    <!-- Generator: Sketch 50.2 (55047) - http://www.bohemiancoding.com/sketch -->
    <title>ico-payments</title>
    <desc>Created with Sketch.</desc>
    <defs></defs>
    <g id="Agent-Sales-Channel" stroke="none" stroke-width="1" fill="none" fill-rule="evenodd">
        <g id="1.2-Home" transform="translate(-630.000000, -209.000000)" fill="#000000" fill-rule="nonzero">
            <g id="content" transform="translate(40.000000, 160.000000)">
                <g id="Button" transform="translate(520.000000, 0.000000)">
                    <g id="ico-payments" transform="translate(70.000000, 49.000000)">
                        <path d="M73.32125,18.2035937 L65.180625,18.2035937 L65.180625,6.71265625 C65.180625,3.03 62.1845312,0.03390625 58.501875,0.03390625 L6.67875,0.03390625 C2.99609375,0.0340625 0,3.03015625 0,6.7128125 L0,36.679375 C0,40.3620312 2.99609375,43.358125 6.67875,43.358125 L14.8196875,43.358125 L14.8196875,54.8496875 C14.8196875,58.5323437 17.8157813,61.5284375 21.4984375,61.5284375 L73.32125,61.5284375 C77.0039062,61.5284375 80,58.5323437 80,54.8496875 L80,24.8823437 C80,21.1996875 77.0039062,18.2035937 73.32125,18.2035937 Z M3.81640625,6.7128125 C3.81640625,5.13453125 5.10046875,3.85046875 6.67875,3.85046875 L58.501875,3.85046875 C60.0801562,3.85046875 61.3642187,5.13453125 61.3642187,6.7128125 L61.3642187,9.37703125 L3.81640625,9.37703125 L3.81640625,6.7128125 Z M14.8196875,24.8823437 L14.8196875,39.5415625 L6.67875,39.5415625 C5.10046875,39.5415625 3.81640625,38.2575 3.81640625,36.6792187 L3.81640625,22.031875 L15.4601562,22.031875 C15.05,22.896875 14.8196875,23.8632812 14.8196875,24.8823437 Z M3.81640625,18.2154687 L3.81640625,13.1935937 L61.3642187,13.1935937 L61.3642187,18.2035937 L21.4984375,18.2035937 C21.369375,18.2035937 21.2415625,18.208125 21.114375,18.2154687 L3.81640625,18.2154687 Z M73.32125,57.7120312 L21.4984375,57.7120312 C19.9201562,57.7120312 18.6360937,56.4279687 18.6360937,54.8496875 L18.6360937,24.8823437 C18.6360937,23.3828125 19.7957812,22.15125 21.2648437,22.031875 L63.271875,22.031875 C63.3423437,22.031875 63.4115625,22.0275 63.4798437,22.02 L73.3210937,22.02 C74.899375,22.02 76.1834375,23.3040625 76.1834375,24.8823437 L76.1834375,54.8496875 L76.1835937,54.8496875 C76.1835937,56.4279687 74.8995312,57.7120312 73.32125,57.7120312 Z" id="Shape"></path>
                        <path d="M53.1579687,30.6675 C50.9873437,30.6675 48.9914062,31.4248437 47.4165625,32.686875 C45.8020312,31.38625 43.7901562,30.6664062 41.6620312,30.6664062 C36.589375,30.6664062 32.4625,34.7932812 32.4625,39.8659375 C32.4625,44.9385937 36.589375,49.0654687 41.6620312,49.0654687 C43.7903125,49.0654687 45.8020312,48.345625 47.4165625,47.0453125 C48.9914062,48.3073437 50.9873437,49.0648437 53.1579687,49.0648437 C58.2301562,49.0648437 62.3565625,44.9382812 62.3565625,39.8660937 C62.3565625,34.7939062 58.2301562,30.6675 53.1579687,30.6675 Z M44.9926562,44.0939062 C44.05375,44.8373437 42.8909375,45.2489062 41.661875,45.2489062 C38.6935937,45.2490625 36.27875,42.8342187 36.27875,39.8660937 C36.27875,36.8978125 38.6935937,34.4829687 41.661875,34.4829687 C42.8909375,34.4829687 44.0535937,34.8946875 44.9926562,35.6379687 C44.3339062,36.9048437 43.959375,38.3420312 43.959375,39.8657812 C43.959375,41.3896875 44.3340625,42.826875 44.9926562,44.0939062 Z M53.1579687,45.2482812 C50.1903125,45.2482812 47.7759375,42.83375 47.7759375,39.8659375 C47.7759375,36.8982812 50.1904687,34.4839062 53.1579687,34.4839062 C56.125625,34.4839062 58.54,36.8984375 58.54,39.8659375 C58.54,42.8339062 56.125625,45.2482812 53.1579687,45.2482812 Z" id="Shape"></path>
                    </g>
                </g>
            </g>
        </g>
    </g>
</svg>