<?xml version="1.0" encoding="UTF-8"?>
<svg width="639px" height="500px" viewBox="0 0 639 500" version="1.1" xmlns="http://www.w3.org/2000/svg" xmlns:xlink="http://www.w3.org/1999/xlink">
    <!-- Generator: Sketch 50.2 (55047) - http://www.bohemiancoding.com/sketch -->
    <title>img-regularpremiumunitlinked</title>
    <desc>Created with Sketch.</desc>
    <defs></defs>
    <g id="Agent-Sales-Channel" stroke="none" stroke-width="1" fill="none" fill-rule="evenodd">
        <g id="3.0.2-Business-Cases---Intro" transform="translate(-713.000000, -201.000000)" fill-rule="nonzero">
            <g id="content" transform="translate(40.000000, 6.000000)">
                <g id="img-regularpremiumunitlinked" transform="translate(673.000000, 195.000000)">
                    <g id="Group" transform="translate(0.000000, 179.687500)">
                        <ellipse id="Oval" fill="#EAEAEA" cx="155.273438" cy="310.058594" rx="86.6210938" ry="9.66796875"></ellipse>
                        <g id="Shape">
                            <g>
                                <g transform="translate(185.546875, 32.226562)">
                                    <path d="M14.1601562,133.59375 L0.390625,131.054687 C0.390625,131.054687 2.05078125,125.585937 4.39453125,115.039062 L17.6757813,117.871094 C16.5039062,122.851562 15.3320312,128.125 14.1601562,133.59375 Z" fill="#EFEFEF"></path>
                                    <path d="M4.296875,115.039062 C8.30078125,97.3632812 15.3320312,47.4609375 18.8476562,3.7109375 C18.8476562,3.7109375 19.4335937,-1.72084569e-15 21.09375,0.390625 C23.2421875,0.87890625 22.7539062,3.61328125 22.5585937,4.6875 C22.8515625,3.7109375 23.7304687,1.3671875 25.4882812,1.85546875 C27.2460937,2.34375 26.8554687,4.78515625 26.6601562,5.6640625 C27.0507812,4.78515625 28.125,2.24609375 30.2734375,2.83203125 C31.8359375,3.3203125 31.8359375,4.78515625 31.5429687,5.859375 C31.4453125,6.0546875 31.4453125,6.15234375 31.4453125,6.34765625 C31.4453125,6.25 31.5429687,6.0546875 31.5429687,5.859375 C31.9335937,4.78515625 32.7148437,3.7109375 33.984375,3.90625 C35.4492187,4.296875 34.765625,7.91015625 34.765625,7.91015625 C33.6914062,14.0625 30.46875,59.1796875 17.6757812,117.871094 L4.296875,115.039062 Z" fill="#D2D2D2"></path>
                                    <path d="M4.296875,115.039063 C5.6640625,109.179688 7.32421875,99.609375 9.08203125,87.9882813 C11.2304687,93.4570313 15.234375,104.003906 18.4570312,114.355469 C18.1640625,115.527344 17.96875,116.796875 17.6757812,117.96875 C16.6015625,123.046875 15.4296875,128.222656 14.1601562,133.789062 L0.390625,131.25 C0.29296875,131.054688 1.953125,125.585938 4.296875,115.039063 Z" fill="#D7D7D7"></path>
                                </g>
                                <g transform="translate(48.828125, 0.000000)">
                                    <g>
                                        <path d="M150,152.539062 C150,152.539062 145.410156,6.0546875 36.4257813,60.15625 C36.4257813,60.15625 18.0664063,96.875 23.2421875,165.917969 C109.960938,176.074219 150,152.539062 150,152.539062 Z" fill="#D2D2D2"></path>
                                        <path d="M124.121094,0.1953125 C124.121094,0.1953125 184.179688,83.1054688 49.3164063,87.5 L49.5117187,113.867188 C49.5117187,113.867188 36.9140625,103.710938 34.9609375,116.308594 C33.0078125,128.90625 49.1210937,123.046875 49.1210937,123.046875 C49.1210937,123.046875 37.890625,156.25 23.6328125,166.113281 C23.6328125,166.113281 -27.734375,57.03125 23.046875,54.1015625 C23.046875,54.1015625 23.046875,34.5703125 49.9023438,22.4609375 C88.4765625,4.98046875 113.183594,47.4609375 124.121094,0.1953125 Z" fill="#000000"></path>
                                    </g>
                                    <path d="M40.1367187,241.796875 L44.3359375,274.21875 L41.6992188,309.960938 C41.6992188,309.960938 86.8164063,322.167969 75.390625,304.394531 C64.84375,287.988281 48.5351563,301.660156 48.5351563,301.660156 L54.9804688,272.753906 L56.0546875,250.585938 C56.0546875,250.585938 101.757812,253.417969 141.113281,241.992188 L143.457031,267.871094 L137.5,305.175781 C137.5,305.175781 179.199219,319.140625 167.675781,299.804688 C161.230469,289.0625 145.507812,295.800781 145.507812,295.800781 L153.90625,267.773438 L155.175781,229.785156 L40.1367187,241.796875 Z" fill="#000000"></path>
                                    <path d="M150,152.539062 L155.078125,229.6875 C155.078125,229.6875 108.007813,243.554687 40.1367188,241.796875 L23.2421875,166.015625 C23.2421875,166.015625 101.757812,172.949219 150,152.539062 Z" fill="#FFEE00"></path>
                                    <polygon fill="#D7D7D7" points="122.753906 166.992188 125.390625 171.191406 122.558594 176.5625 128.90625 222.363281 117.1875 233.398438 105.664062 223.339844 116.113281 177.636719 111.816406 172.460938 113.574219 168.75"></polygon>
                                    <polygon fill="#000000" points="122.753906 166.992188 125.390625 171.191406 122.558594 176.5625 131.640625 221.289063 119.824219 232.421875 108.398438 222.363281 116.113281 177.636719 111.816406 172.460938 113.574219 168.75"></polygon>
                                    <path d="M123.339844,127.734375 C123.339844,127.734375 99.8046875,129.6875 86.0351563,135.9375 C86.0351563,135.9375 87.0117188,155.175781 108.886719,150.976562 C130.566406,146.875 123.339844,127.734375 123.339844,127.734375 Z" fill="#656565"></path>
                                </g>
                                <path d="M75.78125,183.105469 L86.9140625,174.511719 C86.9140625,174.511719 82.9101562,170.3125 76.0742188,162.011719 L65.5273438,170.605469 C68.75,174.609375 72.1679688,178.710938 75.78125,183.105469 Z" fill="#FFEE00"></path>
                                <path d="M76.0742188,162.109375 C64.5507812,148.144531 36.8164062,109.472656 13.8671875,72.0703125 C13.8671875,72.0703125 11.6210938,69.0429687 10.3515625,70.1171875 C8.69140625,71.484375 10.2539063,73.7304688 10.9375,74.609375 C10.2539063,73.9257813 8.3984375,72.1679688 7.03125,73.4375 C5.6640625,74.7070313 7.12890625,76.6601563 7.71484375,77.34375 C7.03125,76.6601563 4.78515625,75 3.22265625,76.4648438 C2.05078125,77.5390625 2.734375,78.90625 3.515625,79.7851563 C3.61328125,79.8828125 3.7109375,79.9804688 3.80859375,80.1757813 C3.7109375,80.078125 3.61328125,79.9804688 3.515625,79.7851563 C2.734375,79.0039063 1.46484375,78.4179688 0.390625,79.1992188 C-0.78125,80.1757813 1.5625,83.1054688 1.5625,83.1054688 C5.37109375,88.0859375 27.4414063,124.21875 65.4296875,170.703125 L76.0742188,162.109375 Z" fill="#D2D2D2"></path>
                            </g>
                            <g transform="translate(118.164062, 95.703125)" fill="#000000">
                                <path d="M9.66796875,18.1640625 C10.546875,22.7539063 9.375,26.8554688 6.93359375,27.34375 C4.58984375,27.8320313 1.953125,24.4140625 0.9765625,19.8242188 C0.09765625,15.234375 1.26953125,11.1328125 3.7109375,10.6445313 C6.15234375,10.15625 8.7890625,13.5742187 9.66796875,18.1640625 Z"></path>
                                <path d="M63.3789063,7.8125 C64.2578125,12.4023437 63.0859375,16.5039062 60.6445312,16.9921875 C58.3007812,17.4804687 55.6640625,14.0625 54.6875,9.47265625 C53.8085937,4.8828125 54.9804688,0.78125 57.421875,0.29296875 C59.8632813,-0.1953125 62.5,3.125 63.3789063,7.8125 Z"></path>
                            </g>
                        </g>
                    </g>
                    <g id="Group" transform="translate(275.390625, 0.000000)">
                        <ellipse id="Oval" fill="#EAEAEA" cx="184.472656" cy="488.769531" rx="93.2617188" ry="10.4492188"></ellipse>
                        <path d="M184.472656,491.699219 C182.8125,491.699219 181.542969,490.429688 181.542969,488.769531 L181.542969,57.3242188 C181.542969,55.6640625 182.8125,54.3945312 184.472656,54.3945312 C186.132813,54.3945312 187.402344,55.6640625 187.402344,57.3242188 L187.402344,488.769531 C187.402344,490.429688 186.132813,491.699219 184.472656,491.699219 Z" id="Shape" fill="#0D0D0D"></path>
                        <path d="M184.472656,164.257812 C183.691406,164.257812 183.007812,163.964844 182.421875,163.378906 L134.667969,115.625 C133.496094,114.453125 133.496094,112.597656 134.667969,111.523437 C135.839844,110.351562 137.695312,110.351562 138.769531,111.523437 L186.523438,159.277344 C187.695313,160.449219 187.695313,162.304688 186.523438,163.378906 C185.9375,164.0625 185.253906,164.257812 184.472656,164.257812 Z" id="Shape" fill="#0D0D0D"></path>
                        <path d="M184.863281,258.398438 C184.082031,258.398438 183.398437,258.105469 182.8125,257.519531 C181.640625,256.347656 181.640625,254.492188 182.8125,253.417969 L300.78125,135.449219 C301.953125,134.277344 303.808594,134.277344 304.882812,135.449219 C306.054688,136.621094 306.054688,138.476562 304.882812,139.550781 L186.914062,257.617188 C186.328125,258.203125 185.644531,258.398438 184.863281,258.398438 Z" id="Shape" fill="#0D0D0D"></path>
                        <path d="M231.152344,212.109375 C229.492188,212.109375 228.222656,210.839844 228.222656,209.179688 L228.222656,157.519531 C228.222656,155.859375 229.492188,154.589844 231.152344,154.589844 C232.8125,154.589844 234.082031,155.859375 234.082031,157.519531 L234.082031,209.179688 C234.082031,210.839844 232.8125,212.109375 231.152344,212.109375 Z" id="Shape" fill="#0D0D0D"></path>
                        <path d="M184.472656,346.582031 C183.691406,346.582031 183.007812,346.289062 182.421875,345.703125 L37.9882812,201.269531 C36.8164062,200.097656 36.8164062,198.242188 37.9882812,197.167969 C39.1601562,195.996094 41.015625,195.996094 42.0898437,197.167969 L186.523437,341.503906 C187.695312,342.675781 187.695312,344.53125 186.523437,345.605469 C185.9375,346.289062 185.253906,346.582031 184.472656,346.582031 Z" id="Shape" fill="#0D0D0D"></path>
                        <path d="M143.75,305.859375 C142.089844,305.859375 140.820312,304.589844 140.820312,302.929688 L140.820312,251.171875 C140.820312,249.511719 142.089844,248.242188 143.75,248.242188 C145.410156,248.242188 146.679688,249.511719 146.679688,251.171875 L146.679688,302.929688 C146.679688,304.492188 145.410156,305.859375 143.75,305.859375 Z" id="Shape" fill="#0D0D0D"></path>
                        <path d="M106.640625,268.652344 L64.5507812,268.652344 C62.890625,268.652344 61.6210937,267.382812 61.6210937,265.722656 C61.6210937,264.0625 62.890625,262.792969 64.5507812,262.792969 L106.640625,262.792969 C108.300781,262.792969 109.570312,264.0625 109.570312,265.722656 C109.570312,267.382812 108.203125,268.652344 106.640625,268.652344 Z" id="Shape" fill="#0D0D0D"></path>
                        <path d="M185.058594,421.484375 C184.277344,421.484375 183.59375,421.191406 183.007812,420.605469 C181.835937,419.433594 181.835937,417.578125 183.007812,416.503906 L296.875,302.539063 C298.046875,301.367188 299.902344,301.367188 300.976562,302.539063 C302.148438,303.710938 302.148438,305.566406 300.976562,306.640625 L187.109375,420.605469 C186.523438,421.191406 185.742188,421.484375 185.058594,421.484375 Z" id="Shape" fill="#0D0D0D"></path>
                        <path d="M217.382812,389.160156 C215.722656,389.160156 214.453125,387.890625 214.453125,386.230469 L214.453125,332.03125 C214.453125,330.371094 215.722656,329.101562 217.382812,329.101562 C219.042969,329.101562 220.3125,330.371094 220.3125,332.03125 L220.3125,386.230469 C220.3125,387.890625 218.945313,389.160156 217.382812,389.160156 Z" id="Shape" fill="#0D0D0D"></path>
                        <path d="M277.734375,364.160156 L242.382812,364.160156 C240.722656,364.160156 239.453125,362.890625 239.453125,361.230469 C239.453125,359.570312 240.722656,358.300781 242.382812,358.300781 L277.734375,358.300781 C279.394531,358.300781 280.664062,359.570312 280.664062,361.230469 C280.664062,362.890625 279.296875,364.160156 277.734375,364.160156 Z" id="Shape" fill="#0D0D0D"></path>
                        <g transform="translate(257.812500, 264.648438)">
                            <circle id="Oval" fill="#0D0D0D" transform="translate(39.793271, 39.951299) rotate(-31.730249) translate(-39.793271, -39.951299) " cx="39.7932715" cy="39.9512988" r="27.4403231"></circle>
                            <circle id="Oval" fill="#FFEE00" transform="translate(39.842783, 39.958232) rotate(-37.450869) translate(-39.842783, -39.958232) " cx="39.8427832" cy="39.9582324" r="22.2663244"></circle>
                            <path d="M33.1054687,49.9023438 C32.03125,48.9257813 31.4453125,47.3632812 31.4453125,45.2148438 L31.4453125,44.3359375 L37.5976562,44.3359375 L37.5976562,45.0195313 C37.5976562,45.9960938 37.7929687,46.7773438 38.1835937,47.1679688 C38.5742187,47.5585937 39.0625,47.7539063 39.7460937,47.7539063 C40.4296875,47.7539063 40.9179687,47.5585938 41.3085937,47.0703125 C41.6992187,46.6796875 41.796875,46.09375 41.796875,45.5078125 C41.796875,44.7265625 41.5039062,44.140625 41.015625,43.6523438 C40.5273437,43.1640625 39.9414062,42.7734375 39.1601563,42.4804688 C38.3789063,42.1875 37.5976562,41.796875 36.71875,41.5039063 C35.8398438,41.2109375 35.0585937,40.7226563 34.2773438,40.234375 C33.4960938,39.7460938 32.9101563,38.9648438 32.421875,38.1835938 C31.9335938,37.3046875 31.640625,36.2304688 31.640625,34.765625 C31.640625,30.46875 33.6914063,28.0273438 37.890625,27.34375 L37.890625,25.390625 L41.015625,25.390625 L41.015625,27.34375 C43.2617188,27.5390625 44.921875,28.2226562 45.9960938,29.3945313 C46.9726563,30.5664063 47.5585938,32.3242188 47.5585938,34.6679688 L41.6015625,34.6679688 L41.6015625,34.1796875 C41.6015625,33.4960938 41.40625,32.9101562 41.1132813,32.421875 C40.8203125,31.9335937 40.3320313,31.640625 39.7460938,31.640625 C39.0625,31.640625 38.5742188,31.8359375 38.28125,32.3242187 C37.9882813,32.8125 37.7929688,33.203125 37.7929688,33.7890625 C37.7929688,34.5703125 38.0859375,35.2539062 38.5742188,35.6445312 C39.0625,36.1328125 39.7460938,36.5234375 40.5273438,36.8164062 C41.3085938,37.109375 42.0898438,37.5 42.96875,37.7929687 C43.8476563,38.0859375 44.7265625,38.5742187 45.4101563,39.0625 C46.1914063,39.6484375 46.7773438,40.3320312 47.3632813,41.2109375 C47.8515625,42.0898437 48.1445313,43.2617187 48.1445313,44.7265625 C48.1445313,47.0703125 47.5585938,48.7304687 46.2890625,49.9023437 C45.1171875,50.9765625 43.359375,51.6601562 41.015625,51.953125 L41.015625,54.9804688 L37.890625,54.9804688 L37.890625,51.953125 C35.8398438,51.4648437 34.1796875,50.8789063 33.1054687,49.9023438 Z" id="Shape" fill="#000000"></path>
                            <path d="M6.25,61.1328125 C5.6640625,60.2539063 5.95703125,59.0820312 6.8359375,58.59375 C7.71484375,58.0078125 8.88671875,58.3007812 9.375,59.1796875 C9.9609375,60.0585938 9.66796875,61.2304688 8.7890625,61.71875 C8.0078125,62.2070313 7.03125,62.109375 6.4453125,61.4257813 C6.34765625,61.4257812 6.25,61.328125 6.25,61.1328125 Z M18.1640625,71.09375 C18.75,70.2148438 19.8242188,69.921875 20.703125,70.5078125 C21.5820313,71.09375 21.875,72.1679687 21.2890625,73.046875 C20.703125,73.9257812 19.6289063,74.21875 18.75,73.6328125 C18.6523438,73.5351563 18.5546875,73.4375 18.4570313,73.3398438 C17.7734375,72.7539062 17.6757813,71.875 18.1640625,71.09375 Z M0.390625,44.4335938 C0.390625,44.4335938 0.390625,44.4335938 0.390625,44.4335938 C0.29296875,43.4570313 0.9765625,42.4804688 2.05078125,42.3828125 C3.125,42.2851562 4.00390625,42.96875 4.1015625,44.0429687 C4.19921875,45.1171875 3.515625,45.9960937 2.44140625,46.09375 C1.85546875,46.1914063 1.26953125,45.9960937 0.87890625,45.6054687 C0.5859375,45.3125 0.390625,44.921875 0.390625,44.4335938 Z M33.7890625,77.4414063 C33.8867188,76.3671875 34.8632813,75.6835938 35.8398438,75.78125 C36.9140625,75.8789063 37.5976562,76.8554688 37.5,77.8320313 C37.4023438,78.8085938 36.4257813,79.5898438 35.4492188,79.4921875 C35.4492188,79.4921875 35.4492188,79.4921875 35.4492188,79.4921875 C35.0585938,79.4921875 34.6679688,79.1992188 34.375,78.90625 C33.8867188,78.515625 33.6914062,78.0273437 33.7890625,77.4414063 Z M2.34375,26.953125 C2.63671875,25.9765625 3.7109375,25.4882813 4.6875,25.78125 C5.6640625,26.0742188 6.15234375,27.1484375 5.859375,28.125 C5.56640625,29.1015625 4.4921875,29.5898438 3.515625,29.296875 C3.22265625,29.1992187 3.02734375,29.0039062 2.83203125,28.8085937 C2.24609375,28.3203125 2.05078125,27.6367188 2.34375,26.953125 Z M50.5859375,76.3671875 C50.2929688,75.390625 50.78125,74.3164062 51.7578125,74.0234375 C52.734375,73.7304688 53.8085938,74.21875 54.1015625,75.1953125 C54.3945312,76.171875 53.90625,77.2460938 52.9296875,77.5390625 C52.2460937,77.734375 51.4648437,77.5390625 50.9765625,77.0507812 C50.8789063,76.8554687 50.6835937,76.6601562 50.5859375,76.3671875 Z M11.71875,11.9140625 C12.4023438,11.2304688 13.671875,11.1328125 14.3554688,11.9140625 C15.0390625,12.5976562 15.0390625,13.8671875 14.3554688,14.5507812 C13.671875,15.234375 12.4023438,15.3320312 11.71875,14.5507812 C10.9375,13.8671875 10.9375,12.6953125 11.71875,11.9140625 Z M65.3320312,65.4296875 C65.3320312,65.4296875 65.3320312,65.4296875 65.3320312,65.4296875 C65.3320312,65.4296875 65.3320312,65.3320312 65.3320312,65.4296875 C66.1132812,64.6484375 67.2851562,64.6484375 68.0664062,65.3320312 C68.75,66.015625 68.8476562,67.2851562 68.0664062,67.96875 C68.0664062,67.96875 68.0664062,67.96875 67.96875,68.0664062 C67.96875,68.0664062 67.96875,68.0664062 67.96875,68.0664062 C67.96875,68.0664062 67.96875,68.0664062 67.96875,68.0664062 C67.2851562,68.75 66.015625,68.75 65.3320312,68.0664062 C64.5507813,67.3828125 64.5507813,66.2109375 65.3320312,65.4296875 Z M25.4882813,4.8828125 C25.0976563,3.90625 25.6835938,2.83203125 26.6601563,2.5390625 C27.6367188,2.1484375 28.7109375,2.734375 29.0039063,3.7109375 C29.3945313,4.6875 28.8085938,5.76171875 27.8320313,6.0546875 C27.1484375,6.34765625 26.3671875,6.15234375 25.8789063,5.56640625 C25.78125,5.37109375 25.5859375,5.17578125 25.4882813,4.8828125 Z M73.828125,51.7578125 C74.1210937,50.78125 75.1953125,50.2929688 76.171875,50.5859375 C77.1484375,50.8789063 77.6367187,51.953125 77.34375,52.9296875 C77.0507813,53.90625 75.9765625,54.3945312 75,54.1015625 C74.7070313,54.0039062 74.5117188,53.8085937 74.3164063,53.6132812 C73.828125,53.2226562 73.6328125,52.4414062 73.828125,51.7578125 Z M42.1875,2.1484375 C42.2851563,1.07421875 43.2617188,0.390625 44.2382813,0.48828125 C45.3125,0.5859375 45.9960938,1.5625 45.8984375,2.5390625 C45.8007813,3.61328125 44.8242188,4.296875 43.8476563,4.19921875 C43.359375,4.1015625 43.0664063,3.90625 42.7734375,3.61328125 C42.2851562,3.3203125 42.0898438,2.734375 42.1875,2.1484375 Z M75.5859375,35.8398437 C75.4882812,34.765625 76.171875,33.8867187 77.2460938,33.7890625 C78.3203125,33.6914062 79.1992188,34.375 79.296875,35.4492187 C79.3945313,36.5234375 78.7109375,37.4023437 77.6367188,37.5 C77.0507812,37.5976562 76.4648437,37.4023437 76.0742187,37.0117187 C75.8789063,36.6210938 75.6835938,36.328125 75.5859375,35.8398437 Z M58.3007813,6.8359375 C58.8867188,5.95703125 59.9609375,5.6640625 60.8398438,6.25 C61.71875,6.8359375 62.0117188,7.91015625 61.4257813,8.7890625 C60.8398438,9.66796875 59.765625,9.9609375 58.8867188,9.375 C58.7890625,9.27734375 58.6914063,9.1796875 58.59375,9.08203125 C58.0078125,8.59375 57.9101562,7.6171875 58.3007813,6.8359375 Z M70.3125,20.703125 C69.7265625,19.8242188 70.0195313,18.6523437 70.8984375,18.1640625 C71.7773437,17.578125 72.9492188,17.8710937 73.4375,18.75 C74.0234375,19.6289062 73.7304687,20.8007813 72.8515625,21.2890625 C72.0703125,21.7773438 71.09375,21.6796875 70.5078125,20.9960938 C70.4101563,20.9960938 70.3125,20.8984375 70.3125,20.703125 Z" id="Shape" fill="#E2E2E2"></path>
                        </g>
                        <g transform="translate(0.000000, 159.179688)">
                            <circle id="Oval" fill="#000000" cx="40.0390625" cy="40.0390625" r="27.4414063"></circle>
                            <circle id="Oval" fill="#FFEE00" transform="translate(40.053711, 40.063574) rotate(-30.683711) translate(-40.053711, -40.063574) " cx="40.0537109" cy="40.0635742" r="22.2656928"></circle>
                            <path d="M33.3007813,49.9023438 C32.2265625,48.9257813 31.640625,47.3632812 31.640625,45.2148438 L31.640625,44.3359375 L37.7929688,44.3359375 L37.7929688,45.0195313 C37.7929688,45.9960938 37.9882813,46.7773438 38.3789063,47.1679688 C38.7695313,47.5585937 39.2578125,47.7539063 39.9414063,47.7539063 C40.625,47.7539063 41.1132813,47.5585938 41.5039063,47.0703125 C41.8945313,46.6796875 41.9921875,46.09375 41.9921875,45.5078125 C41.9921875,44.7265625 41.6992188,44.140625 41.2109375,43.6523438 C40.7226563,43.1640625 40.1367188,42.7734375 39.3554688,42.4804688 C38.5742188,42.1875 37.7929688,41.796875 36.9140625,41.5039063 C36.0351563,41.2109375 35.2539063,40.7226563 34.4726563,40.234375 C33.6914063,39.7460938 33.1054688,38.9648438 32.6171875,38.1835938 C32.1289063,37.3046875 31.8359375,36.2304688 31.8359375,34.765625 C31.8359375,30.46875 33.8867188,28.0273438 38.0859375,27.34375 L38.0859375,25.390625 L41.2109375,25.390625 L41.2109375,27.34375 C43.4570313,27.5390625 45.1171875,28.2226563 46.1914063,29.3945313 C47.1679688,30.5664063 47.7539063,32.3242188 47.7539063,34.6679688 L41.796875,34.6679688 L41.796875,34.1796875 C41.796875,33.4960938 41.6015625,32.9101563 41.3085938,32.421875 C41.015625,31.9335938 40.5273438,31.640625 39.9414063,31.640625 C39.2578125,31.640625 38.7695313,31.8359375 38.4765625,32.3242188 C38.1835938,32.8125 37.9882813,33.203125 37.9882813,33.7890625 C37.9882813,34.5703125 38.28125,35.2539063 38.7695313,35.6445313 C39.2578125,36.1328125 39.9414063,36.5234375 40.7226563,36.8164063 C41.5039063,37.109375 42.2851563,37.5 43.1640625,37.7929688 C44.0429688,38.0859375 44.921875,38.5742188 45.6054688,39.0625 C46.3867188,39.6484375 46.9726563,40.3320313 47.5585938,41.2109375 C48.046875,42.0898438 48.3398438,43.2617188 48.3398438,44.7265625 C48.3398438,47.0703125 47.7539063,48.7304688 46.484375,49.9023438 C45.3125,50.9765625 43.5546875,51.6601563 41.2109375,51.953125 L41.2109375,54.9804688 L38.0859375,54.9804688 L38.0859375,51.7578125 C36.0351562,51.4648437 34.4726563,50.8789063 33.3007813,49.9023438 Z" id="Shape" fill="#000000"></path>
                            <path d="M61.2304687,73.6328125 C60.3515625,74.21875 59.1796875,73.9257812 58.6914062,73.046875 C58.1054687,72.1679687 58.3984375,70.9960937 59.2773437,70.5078125 C60.15625,69.921875 61.328125,70.2148437 61.8164063,71.09375 C62.3046875,71.875 62.2070312,72.8515625 61.5234375,73.4375 C61.5234375,73.5351563 61.4257812,73.5351563 61.2304687,73.6328125 Z M71.1914062,61.71875 C70.3125,61.1328125 70.0195312,60.0585937 70.6054687,59.1796875 C71.1914062,58.3007812 72.265625,58.0078125 73.1445312,58.59375 C74.0234375,59.1796875 74.3164062,60.2539062 73.7304688,61.1328125 C73.6328125,61.2304687 73.5351563,61.328125 73.4375,61.4257812 C72.8515625,62.109375 71.875,62.2070312 71.1914062,61.71875 Z M44.53125,79.4921875 C44.53125,79.4921875 44.53125,79.4921875 44.53125,79.4921875 C43.5546875,79.5898437 42.578125,78.90625 42.4804688,77.8320312 C42.3828125,76.7578125 43.0664063,75.8789062 44.140625,75.78125 C45.2148438,75.6835937 46.09375,76.3671875 46.1914063,77.4414062 C46.2890625,78.0273437 46.09375,78.6132812 45.703125,79.0039062 C45.4101563,79.296875 45.0195313,79.4921875 44.53125,79.4921875 Z M77.5390625,46.09375 C76.4648437,45.9960937 75.78125,45.0195312 75.8789062,44.0429687 C75.9765625,42.96875 76.953125,42.2851562 77.9296875,42.3828125 C78.90625,42.4804687 79.6875,43.4570312 79.5898438,44.4335937 C79.5898438,44.4335937 79.5898438,44.4335937 79.5898438,44.4335937 C79.5898438,44.8242187 79.296875,45.2148438 79.0039062,45.5078125 C78.6132812,45.9960938 78.125,46.1914062 77.5390625,46.09375 Z M27.0507812,77.5390625 C26.0742187,77.2460937 25.5859375,76.171875 25.8789062,75.1953125 C26.171875,74.21875 27.2460937,73.7304688 28.2226562,74.0234375 C29.1992187,74.3164063 29.6875,75.390625 29.3945312,76.3671875 C29.296875,76.6601562 29.1015625,76.8554687 28.90625,77.0507812 C28.4179688,77.6367188 27.734375,77.8320312 27.0507812,77.5390625 Z M76.4648438,29.296875 C75.4882813,29.5898438 74.4140625,29.1015625 74.1210938,28.125 C73.828125,27.1484375 74.3164063,26.0742188 75.2929688,25.78125 C76.2695313,25.4882812 77.34375,25.9765625 77.6367188,26.953125 C77.8320312,27.6367187 77.6367188,28.4179687 77.1484375,28.90625 C76.953125,29.0039062 76.7578125,29.1992188 76.4648438,29.296875 Z M12.0117188,68.1640625 C11.328125,67.4804688 11.2304688,66.2109375 12.0117188,65.5273438 C12.6953125,64.84375 13.9648438,64.84375 14.6484375,65.5273438 C15.3320312,66.2109375 15.4296875,67.4804688 14.6484375,68.1640625 C13.9648438,68.9453125 12.7929688,68.9453125 12.0117188,68.1640625 Z M65.5273438,14.5507813 C65.5273438,14.5507813 65.5273438,14.5507813 65.5273438,14.5507813 C65.4296875,14.5507813 65.4296875,14.453125 65.5273438,14.5507813 C64.7460938,13.7695312 64.7460938,12.5976563 65.4296875,11.8164062 C66.1132812,11.1328125 67.3828125,11.0351562 68.0664062,11.8164062 C68.0664062,11.8164062 68.0664062,11.8164062 68.1640625,11.9140625 C68.1640625,11.9140625 68.1640625,11.9140625 68.1640625,11.9140625 C68.1640625,11.9140625 68.1640625,11.9140625 68.1640625,11.9140625 C68.8476562,12.5976562 68.8476562,13.8671875 68.1640625,14.5507812 C67.4804688,15.3320312 66.3085937,15.3320312 65.5273438,14.5507813 Z M4.98046875,54.3945312 C4.00390625,54.7851562 2.9296875,54.1992187 2.63671875,53.2226562 C2.24609375,52.2460937 2.83203125,51.171875 3.80859375,50.8789063 C4.78515625,50.4882813 5.859375,51.0742188 6.15234375,52.0507812 C6.4453125,52.734375 6.25,53.515625 5.6640625,54.0039062 C5.46875,54.1015625 5.2734375,54.296875 4.98046875,54.3945312 Z M51.8554688,5.95703125 C50.8789063,5.6640625 50.390625,4.58984375 50.6835938,3.61328125 C50.9765625,2.63671875 52.0507813,2.1484375 53.0273438,2.44140625 C54.0039063,2.734375 54.4921875,3.80859375 54.1992188,4.78515625 C54.1015625,5.078125 53.90625,5.2734375 53.7109375,5.46875 C53.3203125,6.0546875 52.5390625,6.25 51.8554688,5.95703125 Z M2.24609375,37.6953125 C1.171875,37.5976562 0.48828125,36.6210937 0.5859375,35.6445312 C0.68359375,34.5703125 1.66015625,33.8867187 2.63671875,33.984375 C3.7109375,34.0820312 4.39453125,35.0585937 4.296875,36.0351562 C4.19921875,36.5234375 4.00390625,36.8164062 3.7109375,37.109375 C3.41796875,37.5976562 2.83203125,37.7929687 2.24609375,37.6953125 Z M35.9375,4.296875 C34.8632812,4.39453125 33.984375,3.7109375 33.8867187,2.63671875 C33.7890625,1.5625 34.4726563,0.68359375 35.546875,0.5859375 C36.6210938,0.48828125 37.5,1.171875 37.5976562,2.24609375 C37.6953125,2.83203125 37.5,3.41796875 37.109375,3.80859375 C36.71875,4.00390625 36.328125,4.19921875 35.9375,4.296875 Z M6.93359375,21.5820312 C6.0546875,20.9960938 5.76171875,19.921875 6.34765625,19.0429688 C6.93359375,18.1640625 8.0078125,17.8710938 8.88671875,18.4570313 C9.765625,19.0429688 10.0585938,20.1171875 9.47265625,20.9960938 C9.375,21.09375 9.27734375,21.1914062 9.1796875,21.2890625 C8.69140625,21.875 7.71484375,21.9726562 6.93359375,21.5820312 Z M20.8007813,9.5703125 C19.921875,10.15625 18.75,9.86328125 18.2617187,8.984375 C17.6757812,8.10546875 17.96875,6.93359375 18.8476563,6.4453125 C19.7265625,5.859375 20.8984375,6.15234375 21.3867188,7.03125 C21.875,7.8125 21.7773438,8.7890625 21.09375,9.375 C21.09375,9.47265625 20.9960938,9.47265625 20.8007813,9.5703125 Z" id="Shape" fill="#E2E2E2"></path>
                        </g>
                        <g transform="translate(262.695312, 97.656250)">
                            <circle id="Oval" fill="#000000" transform="translate(40.139473, 39.882822) rotate(-40.323500) translate(-40.139473, -39.882822) " cx="40.1394727" cy="39.8828223" r="27.4412988"></circle>
                            <circle id="Oval" fill="#FFEE00" transform="translate(40.123604, 39.862461) rotate(-13.415059) translate(-40.123604, -39.862461) " cx="40.1236035" cy="39.8624609" r="22.2652831"></circle>
                            <path d="M33.3984375,49.7070312 C32.3242188,48.7304688 31.7382812,47.1679688 31.7382812,45.0195312 L31.7382812,44.140625 L37.890625,44.140625 L37.890625,44.8242187 C37.890625,45.8007812 38.0859375,46.5820312 38.4765625,46.9726562 C38.8671875,47.3632812 39.3554687,47.5585937 40.0390625,47.5585937 C40.7226563,47.5585937 41.2109375,47.3632812 41.6015625,46.875 C41.9921875,46.484375 42.0898438,45.8984375 42.0898438,45.3125 C42.0898438,44.53125 41.796875,43.9453125 41.3085938,43.4570312 C40.8203125,42.96875 40.234375,42.578125 39.453125,42.2851562 C38.671875,41.9921875 37.890625,41.6015625 37.0117188,41.3085937 C36.1328125,41.015625 35.3515625,40.5273437 34.5703125,40.0390625 C33.7890625,39.5507812 33.203125,38.7695312 32.7148438,37.9882812 C32.2265625,37.109375 31.9335938,36.0351562 31.9335938,34.5703125 C31.9335938,30.2734375 33.984375,27.8320312 38.1835938,27.1484375 L38.1835938,25.1953125 L41.3085938,25.1953125 L41.3085938,27.1484375 C43.5546875,27.34375 45.2148438,28.0273437 46.2890625,29.1992187 C47.265625,30.3710937 47.8515625,32.1289062 47.8515625,34.4726562 L41.9921875,34.4726562 L41.9921875,33.984375 C41.9921875,33.3007812 41.796875,32.7148437 41.5039062,32.2265625 C41.2109375,31.7382812 40.7226563,31.4453125 40.1367188,31.4453125 C39.453125,31.4453125 38.9648437,31.640625 38.671875,32.1289062 C38.3789063,32.6171875 38.1835938,33.0078125 38.1835938,33.59375 C38.1835938,34.375 38.4765625,35.0585937 38.9648437,35.4492187 C39.453125,35.9375 40.1367188,36.328125 40.9179687,36.6210937 C41.6992187,36.9140625 42.4804688,37.3046875 43.359375,37.5976562 C44.2382812,37.890625 45.1171875,38.3789062 45.8007812,38.8671875 C46.5820312,39.453125 47.1679687,40.1367187 47.7539062,41.015625 C48.2421875,41.8945312 48.5351562,43.0664062 48.5351562,44.53125 C48.5351562,46.875 47.9492187,48.5351562 46.6796875,49.7070312 C45.5078125,50.78125 43.75,51.4648437 41.40625,51.7578125 L41.40625,54.7851562 L38.28125,54.7851562 L38.28125,51.7578125 C36.1328125,51.3671875 34.5703125,50.78125 33.3984375,49.7070312 Z" id="Shape" fill="#000000"></path>
                            <path d="M6.54296875,61.0351563 C5.95703125,60.15625 6.25,58.984375 7.12890625,58.4960938 C8.0078125,57.9101563 9.1796875,58.203125 9.66796875,59.0820313 C10.2539063,59.9609375 9.9609375,61.1328125 9.08203125,61.6210938 C8.30078125,62.109375 7.32421875,62.0117188 6.73828125,61.328125 C6.73828125,61.2304687 6.640625,61.1328125 6.54296875,61.0351563 Z M18.4570312,70.8984375 C19.0429688,70.0195312 20.1171875,69.7265625 20.9960938,70.3125 C21.875,70.8984375 22.1679688,71.9726562 21.5820313,72.8515625 C20.9960938,73.7304687 19.921875,74.0234375 19.0429688,73.4375 C18.9453125,73.3398437 18.8476562,73.2421875 18.75,73.1445312 C18.0664062,72.65625 17.96875,71.6796875 18.4570312,70.8984375 Z M0.68359375,44.3359375 C0.68359375,44.3359375 0.68359375,44.3359375 0.68359375,44.3359375 C0.5859375,43.359375 1.26953125,42.3828125 2.34375,42.2851563 C3.41796875,42.1875 4.296875,42.8710938 4.39453125,43.9453125 C4.4921875,45.0195312 3.80859375,45.8984375 2.734375,45.9960938 C2.1484375,46.09375 1.5625,45.8984375 1.171875,45.5078125 C0.9765625,45.2148438 0.78125,44.8242188 0.68359375,44.3359375 Z M34.0820312,77.2460938 C34.1796875,76.171875 35.15625,75.4882812 36.1328125,75.5859375 C37.2070313,75.6835938 37.890625,76.6601562 37.7929688,77.6367188 C37.6953125,78.6132812 36.71875,79.3945313 35.7421875,79.296875 C35.7421875,79.296875 35.7421875,79.296875 35.7421875,79.296875 C35.3515625,79.296875 34.9609375,79.0039062 34.6679688,78.7109375 C34.2773438,78.4179688 33.984375,77.8320312 34.0820312,77.2460938 Z M2.63671875,26.7578125 C2.9296875,25.78125 4.00390625,25.2929688 4.98046875,25.5859375 C5.95703125,25.8789063 6.4453125,26.953125 6.15234375,27.9296875 C5.859375,28.90625 4.78515625,29.3945313 3.80859375,29.1015625 C3.515625,29.0039063 3.3203125,28.8085938 3.125,28.6132813 C2.5390625,28.2226563 2.34375,27.4414062 2.63671875,26.7578125 Z M50.8789063,76.2695312 C50.5859375,75.2929688 51.0742188,74.21875 52.0507813,73.9257812 C53.0273438,73.6328125 54.1015625,74.1210937 54.3945313,75.0976562 C54.6875,76.0742187 54.1992188,77.1484375 53.2226562,77.4414062 C52.5390625,77.6367187 51.7578125,77.4414062 51.2695312,76.953125 C51.171875,76.7578125 50.9765625,76.4648438 50.8789063,76.2695312 Z M12.0117187,11.8164062 C12.6953125,11.1328125 13.9648437,11.0351562 14.6484375,11.8164062 C15.3320313,12.5 15.3320313,13.7695312 14.6484375,14.453125 C13.9648437,15.1367187 12.6953125,15.234375 12.0117187,14.453125 C11.328125,13.671875 11.328125,12.5 12.0117187,11.8164062 Z M65.625,65.3320313 C65.625,65.3320313 65.625,65.3320313 65.625,65.3320313 C65.7226562,65.234375 65.7226562,65.234375 65.625,65.3320313 C66.40625,64.5507812 67.578125,64.5507812 68.359375,65.234375 C69.0429688,65.9179688 69.140625,67.1875 68.359375,67.8710938 C68.359375,67.8710938 68.359375,67.8710938 68.2617187,67.96875 C68.2617187,67.96875 68.2617187,67.96875 68.2617187,67.96875 C68.2617187,67.96875 68.2617187,67.96875 68.2617187,67.96875 C67.578125,68.6523437 66.3085937,68.6523437 65.625,67.96875 C64.9414062,67.1875 64.9414062,66.015625 65.625,65.3320313 Z M25.78125,4.78515625 C25.390625,3.80859375 25.9765625,2.734375 26.953125,2.44140625 C27.9296875,2.05078125 29.0039063,2.63671875 29.296875,3.61328125 C29.6875,4.58984375 29.1015625,5.6640625 28.125,5.95703125 C27.4414062,6.25 26.6601562,6.0546875 26.171875,5.46875 C26.0742188,5.2734375 25.8789062,4.98046875 25.78125,4.78515625 Z M74.21875,51.6601563 C74.5117187,50.6835938 75.5859375,50.1953125 76.5625,50.4882813 C77.5390625,50.78125 78.0273437,51.8554688 77.734375,52.8320313 C77.4414063,53.8085938 76.3671875,54.296875 75.390625,54.0039063 C75.0976563,53.90625 74.9023438,53.7109375 74.7070312,53.515625 C74.1210937,53.125 73.9257813,52.34375 74.21875,51.6601563 Z M42.4804688,2.05078125 C42.578125,0.9765625 43.5546875,0.29296875 44.53125,0.390625 C45.6054688,0.48828125 46.2890625,1.46484375 46.1914063,2.44140625 C46.09375,3.515625 45.1171875,4.19921875 44.140625,4.1015625 C43.6523438,4.00390625 43.359375,3.80859375 43.0664063,3.515625 C42.578125,3.125 42.3828125,2.63671875 42.4804688,2.05078125 Z M75.9765625,35.7421875 C75.8789062,34.6679688 76.5625,33.7890625 77.6367188,33.6914062 C78.7109375,33.59375 79.5898438,34.2773437 79.6875,35.3515625 C79.7851563,36.4257812 79.1015625,37.3046875 78.0273438,37.4023437 C77.4414062,37.5 76.8554687,37.3046875 76.4648437,36.9140625 C76.171875,36.5234375 75.9765625,36.1328125 75.9765625,35.7421875 Z M58.6914063,6.73828125 C59.2773438,5.859375 60.3515625,5.56640625 61.2304688,6.15234375 C62.109375,6.73828125 62.4023438,7.8125 61.8164063,8.69140625 C61.2304688,9.5703125 60.15625,9.86328125 59.2773438,9.27734375 C59.1796875,9.1796875 59.0820312,9.08203125 58.984375,8.984375 C58.3007813,8.49609375 58.203125,7.51953125 58.6914063,6.73828125 Z M70.6054687,20.6054687 C70.0195312,19.7265625 70.3125,18.5546875 71.1914062,18.0664062 C72.0703125,17.4804688 73.2421875,17.7734375 73.7304688,18.6523437 C74.3164063,19.53125 74.0234375,20.703125 73.1445312,21.1914062 C72.3632813,21.6796875 71.3867188,21.5820312 70.8007813,20.8984375 C70.8007813,20.8007813 70.703125,20.703125 70.6054687,20.6054687 Z" id="Shape" fill="#E2E2E2"></path>
                        </g>
                        <g transform="translate(144.531250, 17.578125)">
                            <g transform="translate(1.953125, 1.953125)">
                                <circle id="Oval" fill="#000000" transform="translate(38.009102, 37.791465) rotate(-59.103061) translate(-38.009102, -37.791465) " cx="38.0091016" cy="37.7914648" r="27.4416513"></circle>
                                <circle id="Oval" fill="#FFEE00" transform="translate(38.005889, 37.789443) rotate(-60.902545) translate(-38.005889, -37.789443) " cx="38.0058887" cy="37.7894434" r="22.2657823"></circle>
                                <path d="M31.25,47.65625 C30.1757812,46.6796875 29.5898437,45.1171875 29.5898437,42.96875 L29.5898437,41.9921875 L35.7421875,41.9921875 L35.7421875,42.6757813 C35.7421875,43.6523438 35.9375,44.4335938 36.328125,44.8242188 C36.71875,45.2148438 37.2070312,45.4101563 37.890625,45.4101563 C38.5742188,45.4101563 39.0625,45.2148438 39.453125,44.7265625 C39.84375,44.3359375 39.9414062,43.75 39.9414062,43.1640625 C39.9414062,42.3828125 39.6484375,41.796875 39.1601563,41.3085938 C38.671875,40.8203125 38.0859375,40.4296875 37.3046875,40.1367188 C36.5234375,39.84375 35.7421875,39.453125 34.8632813,39.1601562 C33.984375,38.8671875 33.203125,38.3789062 32.421875,37.890625 C31.640625,37.4023438 31.0546875,36.6210938 30.5664063,35.8398438 C30.078125,34.9609375 29.7851563,33.8867188 29.7851563,32.421875 C29.7851563,28.125 31.8359375,25.6835938 36.0351563,25 L36.0351563,23.046875 L39.1601563,23.046875 L39.1601563,25 C41.40625,25.1953125 43.0664063,25.8789063 44.140625,27.0507813 C45.1171875,28.2226563 45.703125,29.9804688 45.703125,32.3242188 L39.7460938,32.3242188 L39.7460938,31.8359375 C39.7460938,31.1523438 39.5507813,30.5664063 39.2578125,30.078125 C38.9648438,29.5898438 38.4765625,29.296875 37.890625,29.296875 C37.2070313,29.296875 36.71875,29.4921875 36.4257813,29.9804688 C36.1328125,30.46875 35.9375,30.859375 35.9375,31.4453125 C35.9375,32.2265625 36.2304688,32.9101563 36.71875,33.3007813 C37.2070313,33.7890625 37.890625,34.1796875 38.671875,34.4726563 C39.453125,34.765625 40.234375,35.15625 41.1132813,35.4492188 C41.9921875,35.7421875 42.8710938,36.2304688 43.5546875,36.71875 C44.3359375,37.3046875 44.921875,37.9882813 45.5078125,38.8671875 C45.9960938,39.7460938 46.2890625,40.9179688 46.2890625,42.3828125 C46.2890625,44.7265625 45.703125,46.3867188 44.4335938,47.5585938 C43.2617188,48.6328125 41.5039063,49.3164063 39.1601563,49.609375 L39.1601563,52.6367188 L36.1328125,52.6367188 L36.1328125,49.609375 C33.984375,49.21875 32.3242188,48.6328125 31.25,47.65625 Z" id="Shape" fill="#000000"></path>
                            </g>
                            <path d="M31.1523437,78.515625 C30.1757812,78.3203125 29.4921875,77.2460938 29.7851562,76.2695312 C29.9804688,75.2929688 31.0546875,74.609375 32.03125,74.9023437 C33.0078125,75.0976562 33.6914062,76.171875 33.3984375,77.1484375 C33.203125,78.0273438 32.421875,78.6132812 31.5429687,78.6132812 C31.4453125,78.515625 31.25,78.515625 31.1523437,78.515625 Z M46.5820313,77.0507812 C46.3867188,76.0742188 46.9726563,75 47.9492188,74.8046875 C48.9257813,74.609375 50,75.1953125 50.1953125,76.171875 C50.390625,77.1484375 49.8046875,78.2226562 48.828125,78.4179688 C48.7304687,78.4179688 48.5351563,78.515625 48.4375,78.515625 C47.5585938,78.515625 46.7773437,77.9296875 46.5820313,77.0507812 Z M15.234375,70.8007812 C15.234375,70.8007812 15.234375,70.8007812 15.234375,70.8007812 C14.453125,70.1171875 14.2578125,68.9453125 14.9414063,68.1640625 C15.625,67.3828125 16.796875,67.1875 17.578125,67.8710938 C18.359375,68.5546875 18.5546875,69.7265625 17.8710938,70.5078125 C17.4804688,70.9960937 16.9921875,71.1914062 16.40625,71.1914062 C16.015625,71.1914062 15.5273437,71.09375 15.234375,70.8007812 Z M62.109375,70.5078125 C61.4257812,69.7265625 61.6210938,68.5546875 62.4023437,67.8710938 C63.1835937,67.1875 64.3554687,67.3828125 65.0390625,68.1640625 C65.7226563,68.9453125 65.5273438,70.1171875 64.7460938,70.8007812 C64.7460938,70.8007812 64.7460938,70.8007812 64.7460938,70.8007812 C64.3554688,71.09375 63.9648438,71.1914062 63.5742188,71.1914062 C62.9882813,71.1914062 62.5,70.9960937 62.109375,70.5078125 Z M4.19921875,57.03125 C3.7109375,56.0546875 4.1015625,54.9804688 5.078125,54.4921875 C6.0546875,54.0039062 7.12890625,54.3945313 7.6171875,55.3710938 C8.10546875,56.3476563 7.71484375,57.421875 6.73828125,57.9101562 C6.4453125,58.0078125 6.15234375,58.1054687 5.95703125,58.1054687 C5.17578125,58.1054687 4.4921875,57.7148437 4.19921875,57.03125 Z M73.2421875,57.8125 C72.265625,57.3242187 71.875,56.25 72.3632813,55.2734375 C72.8515625,54.296875 73.9257813,53.90625 74.9023438,54.3945312 C75.8789063,54.8828125 76.171875,55.9570312 75.78125,56.9335937 C75.4882813,57.6171875 74.8046875,58.0078125 74.1210938,58.0078125 C73.828125,58.0078125 73.5351562,58.0078125 73.2421875,57.8125 Z M0.1953125,39.84375 C0.1953125,38.7695312 1.07421875,37.9882812 2.05078125,37.9882812 C3.125,37.9882812 3.90625,38.8671875 3.90625,39.84375 C3.90625,40.9179687 3.02734375,41.6992188 2.05078125,41.6992188 C1.07421875,41.6992188 0.1953125,40.8203125 0.1953125,39.84375 Z M75.9765625,39.7460938 C75.9765625,39.7460938 75.9765625,39.7460938 75.9765625,39.7460938 C75.9765625,39.6484375 75.9765625,39.6484375 75.9765625,39.6484375 C75.9765625,38.5742188 76.8554687,37.7929688 77.8320312,37.7929688 C78.90625,37.7929688 79.6875,38.671875 79.6875,39.6484375 C79.6875,39.6484375 79.6875,39.7460938 79.6875,39.7460938 C79.6875,39.7460938 79.6875,39.7460938 79.6875,39.84375 C79.6875,39.84375 79.6875,39.84375 79.6875,39.84375 C79.6875,40.9179687 78.8085937,41.6992188 77.8320312,41.6992188 C76.7578125,41.6015625 75.9765625,40.7226563 75.9765625,39.7460938 Z M4.98046875,25.0976562 C4.00390625,24.609375 3.61328125,23.5351562 4.1015625,22.5585938 C4.58984375,21.5820312 5.6640625,21.1914062 6.640625,21.6796875 C7.6171875,22.1679687 8.0078125,23.2421875 7.51953125,24.21875 C7.2265625,24.9023437 6.54296875,25.2929687 5.859375,25.2929687 C5.56640625,25.1953125 5.2734375,25.1953125 4.98046875,25.0976562 Z M72.3632813,24.0234375 C71.875,23.046875 72.265625,21.9726562 73.2421875,21.484375 C74.21875,20.9960937 75.2929688,21.3867188 75.78125,22.3632812 C76.2695313,23.3398438 75.8789063,24.4140625 74.9023438,24.9023437 C74.609375,25 74.3164063,25.0976562 74.1210938,25.0976562 C73.3398438,25.0976562 72.65625,24.7070312 72.3632813,24.0234375 Z M14.84375,11.328125 C14.1601562,10.546875 14.3554688,9.375 15.1367188,8.69140625 C15.9179687,8.0078125 17.0898438,8.203125 17.7734375,8.984375 C18.4570313,9.765625 18.2617188,10.9375 17.4804688,11.6210937 C17.0898438,11.9140625 16.6992188,12.0117187 16.3085938,12.0117187 C15.7226563,12.0117187 15.234375,11.8164062 14.84375,11.328125 Z M62.3046875,11.5234375 C61.5234375,10.8398437 61.328125,9.66796875 62.0117187,8.88671875 C62.6953125,8.10546875 63.8671875,7.91015625 64.6484375,8.59375 C65.4296875,9.27734375 65.625,10.4492188 64.9414062,11.2304687 C64.5507813,11.71875 64.0625,11.9140625 63.4765625,11.9140625 C63.0859375,11.9140625 62.6953125,11.8164062 62.3046875,11.5234375 Z M29.5898437,3.22265625 C29.3945312,2.24609375 29.9804687,1.171875 30.9570312,0.9765625 C31.9335937,0.78125 33.0078125,1.3671875 33.203125,2.34375 C33.3984375,3.3203125 32.8125,4.39453125 31.8359375,4.58984375 C31.7382812,4.58984375 31.5429687,4.6875 31.4453125,4.6875 C30.5664062,4.6875 29.7851563,4.1015625 29.5898437,3.22265625 Z M47.8515625,4.58984375 C46.875,4.39453125 46.1914062,3.3203125 46.484375,2.34375 C46.6796875,1.3671875 47.7539062,0.68359375 48.7304687,0.9765625 C49.7070312,1.171875 50.390625,2.24609375 50.0976562,3.22265625 C49.9023437,4.1015625 49.1210937,4.6875 48.2421875,4.6875 C48.1445312,4.6875 48.046875,4.58984375 47.8515625,4.58984375 Z" id="Shape" fill="#E2E2E2"></path>
                        </g>
                        <circle id="Oval" fill="#A9A9A9" cx="143.75" cy="251.171875" r="13.28125"></circle>
                        <circle id="Oval" fill="#A9A9A9" cx="231.152344" cy="157.519531" r="13.28125"></circle>
                        <circle id="Oval" fill="#A9A9A9" transform="translate(217.382637, 332.042676) rotate(-22.302535) translate(-217.382637, -332.042676) " cx="217.382637" cy="332.042676" r="13.2813515"></circle>
                        <circle id="Oval" fill="#A9A9A9" cx="277.734375" cy="362.109375" r="13.28125"></circle>
                        <circle id="Oval" fill="#A9A9A9" transform="translate(136.690332, 113.610332) rotate(-80.061056) translate(-136.690332, -113.610332) " cx="136.690332" cy="113.610332" r="13.2813547"></circle>
                        <circle id="Oval" fill="#A9A9A9" cx="64.5507812" cy="265.722656" r="13.28125"></circle>
                        <g transform="translate(342.773438, 211.914062)" fill="#FFEE00" id="Shape">
                            <path d="M10.0585937,29.0039062 C9.27734375,29.0039062 8.59375,28.3203125 8.59375,27.5390625 L8.59375,1.85546875 C8.59375,1.07421875 9.27734375,0.390625 10.0585937,0.390625 C10.8398437,0.390625 11.5234375,1.07421875 11.5234375,1.85546875 L11.5234375,27.5390625 C11.5234375,28.3203125 10.8398438,29.0039062 10.0585937,29.0039062 Z"></path>
                            <path d="M18.5546875,16.1132812 L1.46484375,16.1132812 C0.68359375,16.1132812 0,15.4296875 0,14.6484375 C0,13.8671875 0.68359375,13.1835938 1.46484375,13.1835938 L18.5546875,13.1835938 C19.3359375,13.1835938 20.0195312,13.8671875 20.0195312,14.6484375 C20.0195312,15.4296875 19.4335937,16.1132812 18.5546875,16.1132812 Z"></path>
                        </g>
                        <g transform="translate(98.632812, 351.562500)" fill="#FFEE00" id="Shape">
                            <path d="M10.7421875,29.296875 C9.9609375,29.296875 9.27734375,28.6132813 9.27734375,27.8320312 L9.27734375,2.1484375 C9.27734375,1.3671875 9.9609375,0.68359375 10.7421875,0.68359375 C11.5234375,0.68359375 12.2070312,1.3671875 12.2070312,2.1484375 L12.2070312,27.8320312 C12.2070312,28.6132813 11.5234375,29.296875 10.7421875,29.296875 Z"></path>
                            <path d="M19.2382812,16.40625 L2.1484375,16.40625 C1.3671875,16.40625 0.68359375,15.7226563 0.68359375,14.9414063 C0.68359375,14.1601562 1.3671875,13.4765625 2.1484375,13.4765625 L19.2382812,13.4765625 C20.0195312,13.4765625 20.703125,14.1601562 20.703125,14.9414063 C20.703125,15.7226563 20.0195312,16.40625 19.2382812,16.40625 Z"></path>
                        </g>
                        <g transform="translate(41.992188, 63.476562)" fill="#FFEE00" id="Shape">
                            <path d="M10.7421875,29.4921875 C9.9609375,29.4921875 9.27734375,28.8085938 9.27734375,28.0273437 L9.27734375,2.34375 C9.27734375,1.5625 9.9609375,0.87890625 10.7421875,0.87890625 C11.5234375,0.87890625 12.2070312,1.5625 12.2070312,2.34375 L12.2070312,28.0273437 C12.2070312,28.8085938 11.5234375,29.4921875 10.7421875,29.4921875 Z"></path>
                            <path d="M19.2382812,16.6015625 L2.1484375,16.6015625 C1.3671875,16.6015625 0.68359375,15.9179688 0.68359375,15.1367188 C0.68359375,14.3554687 1.3671875,13.671875 2.1484375,13.671875 L19.2382812,13.671875 C20.0195312,13.671875 20.703125,14.3554687 20.703125,15.1367188 C20.703125,15.9179688 20.1171875,16.6015625 19.2382812,16.6015625 Z"></path>
                        </g>
                        <g transform="translate(286.132812, 0.000000)" fill="#FFEE00" id="Shape">
                            <path d="M10.2539062,29.296875 C9.47265625,29.296875 8.7890625,28.6132812 8.7890625,27.8320313 L8.7890625,2.1484375 C8.7890625,1.3671875 9.47265625,0.68359375 10.2539062,0.68359375 C11.0351562,0.68359375 11.71875,1.3671875 11.71875,2.1484375 L11.71875,27.8320313 C11.71875,28.6132812 11.0351562,29.296875 10.2539062,29.296875 Z"></path>
                            <path d="M18.75,16.40625 L1.66015625,16.40625 C0.87890625,16.40625 0.1953125,15.7226562 0.1953125,14.9414062 C0.1953125,14.1601563 0.87890625,13.4765625 1.66015625,13.4765625 L18.75,13.4765625 C19.53125,13.4765625 20.2148438,14.1601563 20.2148438,14.9414062 C20.2148438,15.7226562 19.6289063,16.40625 18.75,16.40625 Z"></path>
                        </g>
                    </g>
                </g>
            </g>
        </g>
    </g>
</svg>